<svg width="59" height="40" viewBox="0 0 59 40" fill="none" xmlns="http://www.w3.org/2000/svg">
<path d="M50.418 37.5098C50.418 35.4461 52.7546 34.7468 56.0292 34.508V34.184C56.0292 33.2118 55.5176 32.8536 54.6136 32.8536C53.8973 32.8536 53.3174 33.1777 53.1469 33.8599L50.9637 33.0754C51.5266 31.9497 52.891 31.0969 54.8354 31.0969C57.2402 31.0969 58.5876 32.0691 58.5876 34.6274V36.4865C58.5876 37.5951 58.707 39.0619 58.8775 39.7953H56.4727L56.1657 38.7719C55.5346 39.6588 54.5454 39.9999 53.3345 39.9999C51.7312 39.9999 50.418 39.0448 50.418 37.5098ZM56.0804 36.043C54.2896 36.1965 53.0957 36.4353 53.0957 37.3222C53.0957 37.868 53.6074 38.2261 54.2896 38.2261C55.3129 38.2261 56.0804 37.7998 56.0804 36.2477V36.043Z" fill="#E4CDEE"/>
<path d="M47.4089 39.7953H44.8164V31.3357H46.8631L47.3236 32.8878C47.8523 31.5233 48.7562 31.0287 50.0525 31.097V33.6894C49.7796 33.6553 49.592 33.6382 49.3532 33.6382C48.0911 33.6382 47.4089 34.184 47.4089 35.5314V39.7953Z" fill="#E4CDEE"/>
<path d="M34.5977 35.5314C34.5977 32.4784 36.7296 31.0969 39.0833 31.0969C41.4028 31.0969 43.5518 32.4784 43.5518 35.5314C43.5518 38.5843 41.4028 39.9999 39.0833 39.9999C36.7296 39.9999 34.5977 38.5843 34.5977 35.5314ZM39.0833 33.1095C38.0599 33.1095 37.2413 33.7405 37.2413 35.5314C37.2413 37.3051 38.0258 37.9874 39.0833 37.9874C40.1237 37.9874 40.9082 37.3051 40.9082 35.5314C40.9082 33.7405 40.0895 33.1095 39.0833 33.1095Z" fill="#E4CDEE"/>
<path d="M31.2878 39.7953H28.6953V31.3357H30.742L31.2025 32.8878C31.7312 31.5233 32.6351 31.0287 33.9314 31.097V33.6894C33.6585 33.6553 33.4709 33.6382 33.2321 33.6382C31.97 33.6382 31.2878 34.184 31.2878 35.5314V39.7953Z" fill="#E4CDEE"/>
<path d="M21.5773 39.7952H18.7461L21.8843 35.3779L19.0019 31.3357H21.8331L23.2999 33.3994L24.7497 31.3357H27.5809L24.6985 35.3779L27.8367 39.7952H25.0055L23.2999 37.3563L21.5773 39.7952Z" fill="#E4CDEE"/>
<path d="M9.87109 31.3357H12.4635V35.7701C12.4635 36.9811 12.4977 37.9874 13.7598 37.9874C14.8513 37.9874 15.2607 37.3563 15.2607 35.7872V31.3357H17.8702V39.7952H15.6188L15.2607 38.6014C14.766 39.4371 14.1009 39.9999 12.8047 39.9999C10.5533 39.9999 9.87109 38.7207 9.87109 36.4182V31.3357Z" fill="#E4CDEE"/>
<path d="M0 37.5098C0 35.4461 2.33661 34.7468 5.61128 34.508V34.184C5.61128 33.2118 5.09961 32.8536 4.19567 32.8536C3.47933 32.8536 2.89945 33.1777 2.72889 33.8599L0.545778 33.0754C1.10861 31.9497 2.47306 31.0969 4.41739 31.0969C6.82222 31.0969 8.16961 32.0691 8.16961 34.6274V36.4865C8.16961 37.5951 8.289 39.0619 8.45956 39.7953H6.05472L5.74772 38.7719C5.11667 39.6588 4.12745 39.9999 2.9165 39.9999C1.31328 39.9999 0 39.0448 0 37.5098ZM5.66245 36.043C3.87161 36.1965 2.67772 36.4353 2.67772 37.3222C2.67772 37.868 3.18939 38.2261 3.87161 38.2261C4.89495 38.2261 5.66245 37.7998 5.66245 36.2477V36.043Z" fill="#E4CDEE"/>
<path d="M57.9495 28.4259C57.9495 20.8869 54.9546 13.6567 49.6238 8.32576C44.2929 2.99487 37.0626 5.69181e-07 29.5236 0C21.9846 -5.6918e-07 14.7543 2.99486 9.42342 8.32576C4.09252 13.6567 1.09766 20.8869 1.09766 28.4259L29.5236 28.4259H57.9495Z" fill="#9940C1"/>
<path d="M52.2627 28.4259C52.2627 25.4396 51.6745 22.4825 50.5317 19.7234C49.3889 16.9644 47.7138 14.4575 45.6021 12.3458C43.4905 10.2341 40.9835 8.55905 38.2245 7.41622C35.4655 6.27339 32.5084 5.68518 29.522 5.68518C26.5356 5.68518 23.5785 6.27339 20.8195 7.41622C18.0605 8.55905 15.5535 10.2341 13.4419 12.3458C11.3302 14.4575 9.65511 16.9644 8.51229 19.7234C7.36946 22.4825 6.78125 25.4396 6.78125 28.4259L29.522 28.4259H52.2627Z" fill="#47B8B6"/>
<path d="M46.5799 28.4259C46.5799 23.9025 44.7829 19.5644 41.5844 16.3658C38.3859 13.1673 34.0477 11.3704 29.5243 11.3704C25.0009 11.3704 20.6627 13.1673 17.4642 16.3658C14.2657 19.5644 12.4688 23.9025 12.4688 28.4259L29.5243 28.4259H46.5799Z" fill="#E4CDEE"/>
<path d="M40.8931 28.4259C40.8931 26.9327 40.599 25.4542 40.0276 24.0747C39.4562 22.6951 38.6186 21.4417 37.5628 20.3858C36.5069 19.33 35.2535 18.4925 33.874 17.9211C32.4945 17.3496 31.0159 17.0555 29.5227 17.0555C28.0295 17.0555 26.551 17.3496 25.1715 17.9211C23.7919 18.4925 22.5385 19.33 21.4826 20.3858C20.4268 21.4417 19.5893 22.6951 19.0179 24.0747C18.4464 25.4542 18.1523 26.9327 18.1523 28.4259L29.5227 28.4259H40.8931Z" fill="#CCEBEA"/>
<path d="M35.2102 28.4259C35.2102 26.9181 34.6112 25.4721 33.5451 24.4059C32.4789 23.3397 31.0328 22.7407 29.525 22.7407C28.0172 22.7407 26.5712 23.3397 25.505 24.4059C24.4388 25.4721 23.8398 26.9181 23.8398 28.4259L29.525 28.4259H35.2102Z" fill="#9940C1"/>
</svg>
