<svg width="436" height="355" viewBox="0 0 436 355" fill="none" xmlns="http://www.w3.org/2000/svg">
<path d="M93.2911 317L94.2436 326.175C94.691 330.485 98.0973 333.891 102.407 334.339L111.582 335.291L102.407 336.244C98.0973 336.691 94.691 340.097 94.2436 344.407L93.2911 353.582L92.3387 344.407C91.8913 340.097 88.4849 336.691 84.1753 336.244L75 335.291L84.1753 334.339C88.4849 333.891 91.8913 330.485 92.3387 326.175L93.2911 317Z" fill="#47B8B6"/>
<path d="M93.2911 317L94.2436 326.175C94.691 330.485 98.0973 333.891 102.407 334.339L111.582 335.291L102.407 336.244C98.0973 336.691 94.691 340.097 94.2436 344.407L93.2911 353.582L92.3387 344.407C91.8913 340.097 88.4849 336.691 84.1753 336.244L75 335.291L84.1753 334.339C88.4849 333.891 91.8913 330.485 92.3387 326.175L93.2911 317Z" stroke="#47B8B6" stroke-width="2.40996" stroke-linejoin="round"/>
<path d="M74.8295 22.0923L76.0639 33.9831C76.6437 39.5682 81.0582 43.9827 86.6432 44.5625L98.5341 45.7968L86.6432 47.0312C81.0582 47.611 76.6437 52.0254 76.0639 57.6105L74.8295 69.5014L73.5952 57.6105C73.0154 52.0254 68.6009 47.611 63.0159 47.0312L51.125 45.7968L63.0159 44.5625C68.6009 43.9827 73.0154 39.5682 73.5952 33.9831L74.8295 22.0923Z" fill="#CCEBEA"/>
<path d="M74.8295 22.0923L76.0639 33.9831C76.6437 39.5682 81.0582 43.9827 86.6432 44.5625L98.5341 45.7968L86.6432 47.0312C81.0582 47.611 76.6437 52.0254 76.0639 57.6105L74.8295 69.5014L73.5952 57.6105C73.0154 52.0254 68.6009 47.611 63.0159 47.0312L51.125 45.7968L63.0159 44.5625C68.6009 43.9827 73.0154 39.5682 73.5952 33.9831L74.8295 22.0923Z" stroke="#CCEBEA" stroke-width="3.12321" stroke-linejoin="round"/>
<path d="M428.78 157.392L429.104 160.513C429.256 161.979 430.415 163.137 431.881 163.289L435.002 163.613L431.881 163.937C430.415 164.089 429.256 165.248 429.104 166.714L428.78 169.835L428.456 166.714C428.304 165.248 427.145 164.089 425.68 163.937L422.559 163.613L425.68 163.289C427.145 163.137 428.304 161.979 428.456 160.513L428.78 157.392Z" fill="#E4CDEE"/>
<path d="M428.78 157.392L429.104 160.513C429.256 161.979 430.415 163.137 431.881 163.289L435.002 163.613L431.881 163.937C430.415 164.089 429.256 165.248 429.104 166.714L428.78 169.835L428.456 166.714C428.304 165.248 427.145 164.089 425.68 163.937L422.559 163.613L425.68 163.289C427.145 163.137 428.304 161.979 428.456 160.513L428.78 157.392Z" stroke="#E4CDEE" stroke-width="0.819728" stroke-linejoin="round"/>
<path d="M169.499 1L169.823 4.12092C169.975 5.58679 171.134 6.74543 172.6 6.8976L175.721 7.22158L172.6 7.54556C171.134 7.69772 169.975 8.85637 169.823 10.3222L169.499 13.4432L169.175 10.3222C169.023 8.85636 167.864 7.69772 166.398 7.54556L163.277 7.22158L166.398 6.8976C167.864 6.74543 169.023 5.58679 169.175 4.12092L169.499 1Z" fill="#E4CDEE"/>
<path d="M169.499 1L169.823 4.12092C169.975 5.58679 171.134 6.74543 172.6 6.8976L175.721 7.22158L172.6 7.54556C171.134 7.69772 169.975 8.85637 169.823 10.3222L169.499 13.4432L169.175 10.3222C169.023 8.85636 167.864 7.69772 166.398 7.54556L163.277 7.22158L166.398 6.8976C167.864 6.74543 169.023 5.58679 169.175 4.12092L169.499 1Z" stroke="#E4CDEE" stroke-width="0.819728" stroke-linejoin="round"/>
<path d="M250.392 330.867L251.781 333.68C252.434 335.001 253.923 335.685 255.35 335.317L258.389 334.536L255.576 335.925C254.254 336.578 253.571 338.067 253.938 339.494L254.72 342.533L253.331 339.72C252.678 338.398 251.189 337.715 249.761 338.082L246.723 338.864L249.536 337.475C250.857 336.822 251.541 335.333 251.174 333.905L250.392 330.867Z" fill="#CCEBEA"/>
<path d="M250.392 330.867L251.781 333.68C252.434 335.001 253.923 335.685 255.35 335.317L258.389 334.536L255.576 335.925C254.254 336.578 253.571 338.067 253.938 339.494L254.72 342.533L253.331 339.72C252.678 338.398 251.189 337.715 249.761 338.082L246.723 338.864L249.536 337.475C250.857 336.822 251.541 335.333 251.174 333.905L250.392 330.867Z" stroke="#CCEBEA" stroke-width="0.819728" stroke-linejoin="round"/>
<path d="M360.132 14.926L359.91 22.19C359.805 25.6018 362.106 28.62 365.424 29.4231L372.487 31.1329L365.223 30.9104C361.811 30.8059 358.793 33.1067 357.99 36.4244L356.28 43.4878L356.503 36.2238C356.607 32.8119 354.307 29.7937 350.989 28.9907L343.926 27.2809L351.19 27.5034C354.601 27.6079 357.62 25.307 358.423 21.9894L360.132 14.926Z" fill="#47B8B6"/>
<path d="M360.132 14.926L359.91 22.19C359.805 25.6018 362.106 28.62 365.424 29.4231L372.487 31.1329L365.223 30.9104C361.811 30.8059 358.793 33.1067 357.99 36.4244L356.28 43.4878L356.503 36.2238C356.607 32.8119 354.307 29.7937 350.989 28.9907L343.926 27.2809L351.19 27.5034C354.601 27.6079 357.62 25.307 358.423 21.9894L360.132 14.926Z" stroke="#47B8B6" stroke-width="1.89862" stroke-linejoin="round"/>
<path d="M12.3005 199.879L13.8836 205.951C14.6271 208.804 17.2678 210.744 20.2119 210.603L26.48 210.3L20.4075 211.884C17.5554 212.627 15.6146 215.268 15.7565 218.212L16.0585 224.48L14.4754 218.408C13.7319 215.555 11.0912 213.615 8.14712 213.756L1.87902 214.059L7.95143 212.475C10.8036 211.732 12.7444 209.091 12.6025 206.147L12.3005 199.879Z" fill="#E4CDEE"/>
<path d="M12.3005 199.879L13.8836 205.951C14.6271 208.804 17.2678 210.744 20.2119 210.603L26.48 210.3L20.4075 211.884C17.5554 212.627 15.6146 215.268 15.7565 218.212L16.0585 224.48L14.4754 218.408C13.7319 215.555 11.0912 213.615 8.14712 213.756L1.87902 214.059L7.95143 212.475C10.8036 211.732 12.7444 209.091 12.6025 206.147L12.3005 199.879Z" stroke="#E4CDEE" stroke-width="1.63946" stroke-linejoin="round"/>
<path d="M395.842 291.614L395.424 293.269C393.923 299.217 396.797 305.403 402.31 308.094L403.844 308.842L402.189 308.425C396.24 306.924 390.054 309.797 387.363 315.31L386.615 316.844L387.032 315.189C388.533 309.241 385.66 303.055 380.147 300.364L378.613 299.615L380.268 300.033C386.216 301.534 392.403 298.661 395.093 293.147L395.842 291.614Z" fill="#9940C1"/>
<path d="M395.842 291.614L395.424 293.269C393.923 299.217 396.797 305.403 402.31 308.094L403.844 308.842L402.189 308.425C396.24 306.924 390.054 309.797 387.363 315.31L386.615 316.844L387.032 315.189C388.533 309.241 385.66 303.055 380.147 300.364L378.613 299.615L380.268 300.033C386.216 301.534 392.403 298.661 395.093 293.147L395.842 291.614Z" stroke="#9940C1" stroke-width="3.41228" stroke-linejoin="round"/>
</svg>
