<svg width="138" height="53" viewBox="0 0 138 53" fill="none" xmlns="http://www.w3.org/2000/svg">
<g clip-path="url(#clip0_844_40607)">
<g clip-path="url(#clip1_844_40607)">
<path d="M104.197 33.5883C104.234 32.6815 103.944 31.9594 103.401 31.4136L90.3613 18.3737L81.668 27.0669L85.1447 30.5437C85.7246 31.1236 85.7246 31.7035 85.1447 32.2835L83.8399 33.5883L83.9252 33.6736H104.194C104.194 33.6452 104.194 33.6168 104.194 33.5883" fill="#125E3F"/>
<path d="M62.1081 29.2418L51.2429 18.3766L38.1689 31.4506C37.6259 31.9936 37.3359 32.7185 37.3359 33.6595C37.3359 33.6652 37.3359 33.668 37.3359 33.6737H57.6762L62.1081 29.2418Z" fill="#A7D6C1"/>
<path d="M72.1054 19.2465C72.6854 18.6666 73.2653 18.6666 73.8452 19.2465L77.322 22.7233L86.0153 14.03L72.9753 0.990049C72.4324 0.447074 71.7075 0.157108 70.8006 0.194065C69.8938 0.157108 69.1717 0.447074 68.6259 0.990049L55.5859 14.03L66.4511 24.8952L72.1026 19.2437L72.1054 19.2465Z" fill="#34785E"/>
<path d="M25.7219 41.1929H27.9563L32.6782 52.2912H30.1453L29.1389 49.8208H24.4796L23.4732 52.2912H21L25.7219 41.1929ZM28.2719 47.6773L26.8078 44.1039L25.3438 47.6773H28.2719Z" fill="#6D6D6C"/>
<path d="M40.2195 46.6852L36.5353 41.2725H39.3695L41.6836 44.8459L44.0118 41.2725H46.7665L43.0851 46.6539L46.9257 52.2912H44.0914L41.621 48.5131L39.1336 52.2912H36.3789L40.2195 46.6852Z" fill="#6D6D6C"/>
<path d="M51.8828 41.2725H60.1952V43.4273H54.2907V45.6617H59.4873V47.8194H54.2907V50.1335H60.2719V52.2912H51.8828V41.2725Z" fill="#6D6D6C"/>
<path d="M65.5781 41.2725H68.0002V50.0851H73.4953V52.2912H65.5781V41.2725Z" fill="#6D6D6C"/>
<path d="M78.4766 41.2725H86.7861V43.4273H80.8844V45.6617H86.0782V47.8194H80.8844V50.1335H86.8657V52.2912H78.4766V41.2725Z" fill="#6D6D6C"/>
<path d="M92.1669 41.2724H97.2043C98.6058 41.2724 99.6918 41.6647 100.417 42.3896C101.031 43.0036 101.361 43.8707 101.361 44.9083V44.9396C101.361 46.7192 100.4 47.8364 98.9982 48.3538L101.69 52.2882H98.856L96.4936 48.7632H94.589V52.2882H92.1641V41.2695L92.1669 41.2724ZM97.048 46.6254C98.2278 46.6254 98.9043 45.9971 98.9043 45.0675V45.0362C98.9043 43.9986 98.1794 43.4613 96.9997 43.4613H94.5918V46.6254H97.048Z" fill="#6D6D6C"/>
<path d="M110.473 41.1929H112.707L117.429 52.2912H114.896L113.89 49.8208H109.231L108.224 52.2912H105.754L110.476 41.1929H110.473ZM113.023 47.6773L111.559 44.1039L110.095 47.6773H113.023Z" fill="#6D6D6C"/>
</g>
</g>
<defs>
<clipPath id="clip0_844_40607">
<rect width="137.287" height="52.0956" fill="white" transform="translate(0 0.191162)"/>
</clipPath>
<clipPath id="clip1_844_40607">
<rect width="96.4306" height="52.1" fill="white" transform="translate(21 0.191162)"/>
</clipPath>
</defs>
</svg>
