<svg width="139" height="53" viewBox="0 0 139 53" fill="none" xmlns="http://www.w3.org/2000/svg">
<g clip-path="url(#clip0_844_40556)">
<mask id="mask0_844_40556" style="mask-type:luminance" maskUnits="userSpaceOnUse" x="0" y="18" width="15" height="16">
<path d="M0.863281 18.0868H14.6138V33.6635H0.863281V18.0868Z" fill="white"/>
</mask>
<g mask="url(#mask0_844_40556)">
<path d="M14.5934 31.4774C13.0672 32.9092 11.0529 33.68 8.96023 33.6486C6.80459 33.6956 4.71188 32.8618 3.16974 31.3515C1.62759 29.9516 0.777838 27.9533 0.793784 25.861C0.762312 23.7688 1.64354 21.7705 3.18526 20.3706C4.72741 18.8759 6.80459 18.0735 8.96023 18.105C10.9585 18.0735 12.8939 18.7974 14.389 20.1188L11.9186 23.2967C11.1633 22.4788 10.0773 22.0222 8.96023 22.0537C7.89017 22.0382 6.86753 22.4314 6.09625 23.1708C5.32539 23.8632 4.88477 24.8543 4.90072 25.8925C4.88477 26.9307 5.32539 27.9218 6.09625 28.6142C6.86753 29.3536 7.89017 29.7628 8.96023 29.7468C10.1088 29.7783 11.2262 29.2907 11.9816 28.4095L14.5934 31.4774Z" fill="#2696F1"/>
</g>
<path d="M31.1306 33.208L30.2494 30.9424C28.6917 32.7359 26.4102 33.7431 24.0342 33.6801C22.3662 33.6956 20.7456 33.208 19.3608 32.2798C18.0075 31.383 16.9689 30.0931 16.3869 28.5669C15.4897 26.1914 15.8518 23.517 17.3625 21.4718C18.3377 20.1503 19.707 19.1592 21.2646 18.6401C22.1614 18.3254 23.1056 18.1525 24.0657 18.1525C25.7333 18.1365 27.3699 18.6241 28.7387 19.5683C30.092 20.4651 31.1306 21.7705 31.7126 23.2967L35.4893 33.224L31.1306 33.208ZM21.7523 29.1019C23.3574 30.1716 25.4975 29.9987 26.8978 28.6773C28.4085 27.2614 28.4869 24.8859 27.0711 23.3752C26.8508 23.1553 26.6145 22.9505 26.3472 22.7777C25.6548 22.3215 24.8521 22.0853 24.0342 22.1012C22.7279 22.0383 21.485 22.6518 20.7456 23.7374C20.289 24.3823 20.0532 25.1532 20.0687 25.9396C20.0532 27.2299 20.7141 28.4255 21.8152 29.0864" fill="#2696F1"/>
<mask id="mask1_844_40556" style="mask-type:luminance" maskUnits="userSpaceOnUse" x="36" y="12" width="6" height="22">
<path d="M36.8516 12.0956H41.0412V33.2341H36.8516V12.0956Z" fill="white"/>
</mask>
<g mask="url(#mask1_844_40556)">
<path d="M36.875 12.0956H40.9819V33.2081H36.875V12.0956Z" fill="#2696F1"/>
</g>
<mask id="mask2_844_40556" style="mask-type:luminance" maskUnits="userSpaceOnUse" x="43" y="12" width="5" height="22">
<path d="M43.082 12.0956H47.2716V33.2341H43.082V12.0956Z" fill="white"/>
</mask>
<g mask="url(#mask2_844_40556)">
<path d="M43.1055 12.0956H47.2124V33.2081H43.1055V12.0956Z" fill="#2696F1"/>
</g>
<mask id="mask3_844_40556" style="mask-type:luminance" maskUnits="userSpaceOnUse" x="49" y="18" width="17" height="22">
<path d="M49.3125 18.0868H65.6412V39.3277H49.3125V18.0868Z" fill="white"/>
</mask>
<g mask="url(#mask3_844_40556)">
<path d="M49.3211 25.9079C49.2897 23.8157 50.155 21.8178 51.6971 20.4175C54.9543 17.4129 59.9894 17.4129 63.2466 20.4175C64.7888 21.8178 65.67 23.8157 65.6385 25.9079C65.654 27.9847 64.7888 29.967 63.2466 31.3674C61.7045 32.8617 59.6277 33.664 57.4876 33.6325C56.0713 33.6485 54.6866 33.2863 53.4436 32.6099V39.3433H49.3211V25.9079ZM53.4281 25.9079C53.4121 26.9465 53.8527 27.9377 54.6236 28.6456C55.3949 29.385 56.4175 29.7942 57.4876 29.7627C58.5417 29.7782 59.5803 29.385 60.3356 28.6456C61.8463 27.2138 61.9092 24.8228 60.4615 23.3125C60.4141 23.2651 60.383 23.2181 60.3356 23.1866C59.5803 22.4472 58.5577 22.0381 57.4876 22.0536C56.4175 22.0381 55.3949 22.4472 54.6236 23.1866C53.8372 23.8631 53.4121 24.8542 53.4281 25.9079Z" fill="#2696F1"/>
</g>
<path d="M67.668 17.9637H71.7749V33.2081H67.668V17.9637Z" fill="#2696F1"/>
<mask id="mask4_844_40556" style="mask-type:luminance" maskUnits="userSpaceOnUse" x="100" y="12" width="6" height="5">
<path d="M100.66 12.0956H105.709V16.9054H100.66V12.0956Z" fill="white"/>
</mask>
<g mask="url(#mask4_844_40556)">
<path d="M100.676 14.4547C100.661 13.8256 100.928 13.2277 101.4 12.803C101.872 12.3624 102.502 12.1266 103.147 12.1421C103.792 12.1266 104.422 12.3624 104.894 12.8185C105.35 13.2436 105.618 13.8256 105.618 14.4547C105.633 15.0841 105.366 15.6821 104.909 16.1223C104.437 16.5788 103.808 16.8302 103.163 16.7987C102.518 16.8147 101.872 16.5629 101.416 16.1223C100.944 15.6976 100.692 15.0841 100.692 14.4547" fill="#2696F1"/>
</g>
<path d="M87.7299 31.4777C84.4727 34.3883 79.5475 34.3568 76.3377 31.3833C74.7956 29.9674 73.9303 27.9696 73.9618 25.8769C73.9303 23.8005 74.7801 21.7867 76.3218 20.3864C79.4531 17.4603 84.2684 17.3504 87.5411 20.1191L85.0707 23.2815C84.3154 22.4632 83.2298 22.007 82.1123 22.0385C81.0426 22.0226 80.0196 22.4162 79.2487 23.1556C78.4779 23.8475 78.0372 24.8387 78.0528 25.8769C78.0372 26.9155 78.4779 27.9066 79.2487 28.5986C80.0196 29.338 81.0426 29.7471 82.1123 29.7316C83.2612 29.7631 84.3783 29.2751 85.1336 28.3942L87.7299 31.4777Z" fill="#2696F1"/>
<path d="M93.88 33.2079H89.7734V18.2153H93.88V23.5798H96.4607C97.5148 23.6113 98.5379 23.2022 99.2773 22.4628C100.033 21.7389 100.457 20.7482 100.457 19.7096V18.1678H104.627V19.6781C104.659 21.9277 103.651 24.0834 101.889 25.4833C103.651 26.8836 104.659 29.0233 104.627 31.2885V33.2393H100.457V31.2885C100.457 30.2658 100.033 29.2747 99.2932 28.5667C98.5379 27.8273 97.5148 27.4342 96.4607 27.4656H93.88V33.2079Z" fill="#2696F1"/>
<path d="M123.041 25.8766C123.041 26.2702 123.009 26.6479 122.946 27.0251H111.035C111.287 27.8274 111.806 28.5198 112.498 29.0074C113.206 29.511 114.041 29.7628 114.906 29.7468C116.086 29.7783 117.219 29.2592 117.974 28.3465L120.476 31.5089C117.203 34.4035 112.278 34.3405 109.084 31.3675C107.542 29.9516 106.676 27.9533 106.708 25.861C106.676 23.7843 107.558 21.7864 109.099 20.3861C112.357 17.3815 117.376 17.3815 120.633 20.3861C122.175 21.7864 123.041 23.7688 123.009 25.8455M118.415 24.1305C117.298 22.1641 114.811 21.4876 112.845 22.6043C112.199 22.9664 111.68 23.501 111.318 24.1305H118.415Z" fill="#2696F1"/>
<path d="M127.556 20.3863C129.098 18.892 131.175 18.0897 133.331 18.1211V22.0384C132.261 22.0224 131.238 22.4161 130.467 23.1555C129.696 23.8474 129.256 24.8386 129.271 25.8768V33.2241H125.212V25.8768C125.18 23.7845 126.062 21.7866 127.603 20.3863" fill="#2696F1"/>
<mask id="mask5_844_40556" style="mask-type:luminance" maskUnits="userSpaceOnUse" x="89" y="12" width="6" height="5">
<path d="M89.3828 12.0956H94.4318V16.9054H89.3828V12.0956Z" fill="white"/>
</mask>
<g mask="url(#mask5_844_40556)">
<path d="M89.4141 14.4547C89.4141 13.8256 89.6818 13.2121 90.1539 12.803C90.6255 12.3624 91.255 12.1266 91.9004 12.1421C92.5454 12.1266 93.1907 12.3624 93.6469 12.8185C94.103 13.2436 94.3708 13.8256 94.3708 14.4547C94.3863 15.0841 94.119 15.6821 93.6624 16.1223C93.1907 16.5788 92.5613 16.8302 91.9159 16.7987C91.2709 16.8147 90.6255 16.5629 90.1694 16.1223C89.6973 15.6976 89.4455 15.0841 89.4455 14.4547" fill="#2696F1"/>
</g>
<path d="M93.88 27.4503H89.7734V18.2155H93.88V23.58H96.4607C98.412 23.69 100.3 24.3664 101.889 25.4994C103.667 26.8993 104.675 29.055 104.627 31.3046V33.2555H100.457V31.2731C100.457 30.2505 100.033 29.2593 99.2932 28.5514C98.5379 27.812 97.5148 27.4188 96.4607 27.4503H93.88Z" fill="#2696F1"/>
<path d="M135.55 13.6526V14.4394H135.818C135.928 14.4394 136.022 14.408 136.101 14.3291C136.179 14.2506 136.227 14.1562 136.227 14.0462C136.227 13.9359 136.195 13.8415 136.116 13.763C136.038 13.6841 135.927 13.6526 135.833 13.6526H135.55ZM136.588 15.588H136.164V15.2258C136.164 15.1159 136.132 15.0215 136.053 14.943C135.975 14.8641 135.865 14.8326 135.771 14.8326H135.503V15.588H135.078V13.2439H135.755C135.975 13.2439 136.179 13.3224 136.337 13.4642C136.494 13.6056 136.573 13.81 136.573 14.0303C136.573 14.2665 136.478 14.4709 136.29 14.6123C136.462 14.7542 136.573 14.9745 136.573 15.1943V15.588H136.588Z" fill="#2696F1"/>
<mask id="mask6_844_40556" style="mask-type:luminance" maskUnits="userSpaceOnUse" x="133" y="12" width="6" height="5">
<path d="M133.32 12.0956H138.154V16.798H133.32V12.0956Z" fill="white"/>
</mask>
<g mask="url(#mask6_844_40556)">
<path d="M135.787 12.3944C134.638 12.363 133.694 13.2757 133.663 14.4238C133.663 15.6038 134.622 16.5479 135.787 16.5479C136.967 16.5479 137.911 15.5883 137.911 14.4238C137.88 13.2757 136.935 12.363 135.787 12.3944ZM135.787 16.7683C134.465 16.7993 133.379 15.7611 133.332 14.4397C133.411 13.0868 134.575 12.0642 135.929 12.1427C137.172 12.2215 138.163 13.2127 138.226 14.4397C138.194 15.7611 137.093 16.7993 135.787 16.7683Z" fill="#2696F1"/>
</g>
</g>
<defs>
<clipPath id="clip0_844_40556">
<rect width="137.287" height="52.0956" fill="white" transform="translate(0.863281 0.0955811)"/>
</clipPath>
</defs>
</svg>
