<svg width="138" height="53" viewBox="0 0 138 53" fill="none" xmlns="http://www.w3.org/2000/svg">
<path d="M87.078 12.2577H74.8204V0H62.2655V12.2577H50.0078V24.8125H62.2655V37.0702H74.8204V24.8125H87.078V12.2577Z" fill="#109D48"/>
<path d="M81.6302 52H40.2891V41.5758H92.0544L81.6302 52Z" fill="#109D48"/>
<path d="M81.6289 51.9999L92.0532 41.5757H96.7913L86.3671 51.9999H81.6289Z" fill="#FCD305"/>
<path d="M48.7282 49.52H49.3092V48.2786H48.7282C48.7282 48.2786 47.3806 48.4272 47.3806 46.3664C47.3806 44.3056 48.7282 44.4542 48.7282 44.4542H49.3092V43.2106H48.7282C48.7282 43.2106 45.8555 43.085 45.8555 46.3671C45.8555 49.6492 48.7282 49.52 48.7282 49.52Z" fill="white"/>
<path d="M56.5688 48.1056V45.0999H55.3251V48.1056C55.3303 48.1737 55.3205 48.2421 55.2965 48.306C55.2726 48.37 55.235 48.4279 55.1863 48.4758C55.1377 48.5238 55.0792 48.5605 55.0149 48.5836C54.9506 48.6066 54.8821 48.6154 54.814 48.6093C54.7465 48.6134 54.6788 48.6033 54.6154 48.5795C54.552 48.5558 54.4943 48.5189 54.4461 48.4714C54.3979 48.4239 54.3602 48.3668 54.3356 48.3037C54.3109 48.2407 54.2998 48.1732 54.3029 48.1056V45.0999H53.0586V48.1056C53.0586 48.3589 53.1195 49.5475 54.8133 49.5475C56.5071 49.5475 56.5688 48.3797 56.5688 48.1056Z" fill="white"/>
<path d="M65.0045 43.2076L64.1182 47.6368L63.2319 43.2076H61.6719L63.2513 49.5222H64.9852L66.5645 43.2076H65.0045Z" fill="white"/>
<path d="M51.1733 45.9289V45.0998H49.9297V49.52H51.1733V47.7801C51.1733 47.7801 51.3063 46.0626 52.6539 46.0626V45.0968C52.3508 45.0609 52.0441 45.1221 51.778 45.2716C51.5119 45.4211 51.3002 45.6513 51.1733 45.9289Z" fill="white"/>
<path d="M72.0991 45.9289V45.0998H70.8555V49.52H72.0991V47.7801C72.0991 47.7801 72.232 46.0626 73.5796 46.0626V45.0968C73.2765 45.0609 72.9699 45.1221 72.7038 45.2716C72.4377 45.4211 72.226 45.6513 72.0991 45.9289Z" fill="white"/>
<path d="M60.7788 45.0999H57.1193V46.0656H58.6682L56.6914 49.523H60.6302V48.5573H58.7975L60.7788 45.0999Z" fill="white"/>
<path d="M67.6159 47.6368H70.2442C70.2442 46.5113 70.0585 45.053 68.3922 45.053C66.8247 45.053 66.3426 46.2059 66.3426 47.2817C66.3279 47.57 66.3723 47.8584 66.473 48.1291C66.5737 48.3997 66.7286 48.6469 66.9282 48.8556C67.1278 49.0642 67.3679 49.2299 67.6339 49.3425C67.8998 49.4551 68.1859 49.5122 68.4747 49.5103C69.0697 49.5557 69.6612 49.3847 70.1402 49.0289V48.1716C69.7128 48.4055 69.2426 48.5511 68.7577 48.5995C68.482 48.6089 68.2126 48.5156 68.0016 48.3377C67.7907 48.1599 67.6533 47.9101 67.6159 47.6368ZM68.2474 45.9816C68.9115 45.9816 68.8892 46.9964 68.8892 46.9964H67.6151C67.6151 46.9964 67.5602 45.9838 68.2474 45.9838V45.9816Z" fill="white"/>
<path d="M79.6511 47.6368H82.2794C82.2794 46.5113 82.0937 45.053 80.4274 45.053C78.8599 45.053 78.3777 46.2059 78.3777 47.2817C78.3631 47.57 78.4074 47.8584 78.5081 48.1291C78.6088 48.3997 78.7638 48.6469 78.9634 48.8556C79.163 49.0642 79.4031 49.2299 79.669 49.3425C79.935 49.4551 80.2211 49.5122 80.5099 49.5103C81.1049 49.5557 81.6963 49.3847 82.1754 49.0289V48.1716C81.748 48.4056 81.2778 48.5511 80.7929 48.5995C80.5171 48.6089 80.2477 48.5156 80.0368 48.3377C79.8259 48.1599 79.6884 47.9101 79.6511 47.6368ZM80.2825 45.9816C80.9467 45.9816 80.9244 46.9964 80.9244 46.9964H79.6503C79.6503 46.9964 79.5983 45.9838 80.2825 45.9838V45.9816Z" fill="white"/>
<path d="M76.4456 43.2077V45.6184C76.3295 45.4451 76.1699 45.3054 75.9828 45.2134C75.7957 45.1213 75.5876 45.0801 75.3795 45.0939C74.3135 45.0939 73.7578 46.0596 73.7578 47.4102C73.7578 48.7608 74.5497 49.52 75.2978 49.52C75.512 49.5233 75.7245 49.4822 75.922 49.3994C76.1196 49.3165 76.2978 49.1937 76.4456 49.0386V49.52H77.6892V43.2054L76.4456 43.2077ZM76.4456 48.032C76.4456 48.032 76.1484 48.5944 75.7421 48.5944C75.3357 48.5944 75.0393 48.0469 75.0393 47.3069C75.0393 46.567 75.2763 45.9883 75.7502 45.9883C75.8955 45.9965 76.0362 46.0425 76.1582 46.1218C76.2803 46.201 76.3796 46.3107 76.4463 46.44L76.4456 48.032Z" fill="white"/>
<path d="M83.7177 46.7266C83.5881 46.7266 83.4614 46.6882 83.3537 46.6162C83.2459 46.5442 83.162 46.4419 83.1124 46.3221C83.0628 46.2024 83.0498 46.0706 83.0751 45.9435C83.1004 45.8164 83.1628 45.6997 83.2544 45.608C83.346 45.5164 83.4628 45.454 83.5899 45.4287C83.717 45.4034 83.8487 45.4164 83.9685 45.466C84.0882 45.5156 84.1905 45.5996 84.2625 45.7073C84.3345 45.8151 84.3729 45.9418 84.3729 46.0714C84.3727 46.2451 84.3037 46.4116 84.1808 46.5345C84.058 46.6573 83.8914 46.7264 83.7177 46.7266ZM83.7177 45.538C83.6123 45.5381 83.5092 45.5695 83.4216 45.6282C83.334 45.6869 83.2657 45.7703 83.2255 45.8678C83.1852 45.9652 83.1747 46.0725 83.1954 46.1759C83.2161 46.2793 83.2669 46.3743 83.3416 46.4488C83.4162 46.5233 83.5112 46.574 83.6147 46.5946C83.7181 46.6151 83.8253 46.6045 83.9228 46.5641C84.0202 46.5237 84.1034 46.4553 84.162 46.3676C84.2206 46.2799 84.2518 46.1768 84.2518 46.0714C84.2516 45.9298 84.1953 45.7942 84.0951 45.6941C83.995 45.5941 83.8592 45.538 83.7177 45.538Z" fill="white"/>
<path d="M83.4648 46.3991V45.7446H83.7546C83.7996 45.7427 83.8446 45.7488 83.8875 45.7624C83.9186 45.7743 83.9447 45.7963 83.9618 45.8248C83.9797 45.8546 83.989 45.8888 83.9886 45.9236C83.9891 45.9452 83.9854 45.9667 83.9777 45.9869C83.9699 46.007 83.9582 46.0254 83.9432 46.041C83.9053 46.0766 83.8563 46.0981 83.8043 46.1019C83.8231 46.1103 83.8406 46.1213 83.8563 46.1346C83.8848 46.1602 83.9098 46.1894 83.9306 46.2215L84.0443 46.3991H83.9351L83.8482 46.2631C83.8229 46.2238 83.8021 46.194 83.7857 46.1732C83.7735 46.1562 83.7584 46.1414 83.7412 46.1294C83.7293 46.1213 83.7159 46.1154 83.7018 46.1123C83.6858 46.1108 83.6696 46.1108 83.6535 46.1123H83.5532V46.4028L83.4648 46.3991ZM83.5518 46.0336H83.7375C83.7689 46.0346 83.8003 46.0304 83.8303 46.021C83.8511 46.0139 83.8689 46 83.8809 45.9816C83.8922 45.9641 83.8981 45.9437 83.8979 45.9229C83.898 45.9088 83.8951 45.8949 83.8893 45.8821C83.8835 45.8693 83.8751 45.8579 83.8645 45.8486C83.8338 45.8263 83.7961 45.8157 83.7583 45.8189H83.551L83.5518 46.0336Z" fill="white"/>
</svg>
