<svg width="138" height="53" viewBox="0 0 138 53" fill="none" xmlns="http://www.w3.org/2000/svg">
<g clip-path="url(#clip0_844_40619)">
<g clip-path="url(#clip1_844_40619)">
<path d="M75.6328 30.1396C75.6328 29.6485 75.8138 29.2266 76.1765 28.8739C76.5383 28.5212 76.9739 28.3445 77.4833 28.3445C77.9766 28.3445 78.408 28.5137 78.7783 28.8506C79.1486 29.1883 79.3328 29.6027 79.3328 30.0938C79.3328 30.5849 79.1519 31.0068 78.7892 31.3595C78.4265 31.713 77.9917 31.8889 77.4824 31.8889C77.2353 31.8889 77.0007 31.8431 76.7771 31.7505C76.5534 31.6588 76.3566 31.5362 76.1874 31.382C76.0173 31.2286 75.8824 31.0443 75.7828 30.83C75.6822 30.6149 75.6328 30.3848 75.6328 30.1396Z" fill="#50A26C"/>
<path d="M88.9062 24.0179C88.5829 23.6802 88.2436 23.4118 87.8884 23.2125C87.5332 23.0132 87.1714 22.9131 86.802 22.9131C86.2935 22.9131 85.8386 23.0049 85.4374 23.1891C85.0361 23.3734 84.6935 23.6185 84.4087 23.9254C84.123 24.2322 83.9078 24.5849 83.7612 24.9843C83.6146 25.3837 83.5417 25.7981 83.5417 26.2275C83.5417 26.6569 83.6146 27.0713 83.7612 27.4706C83.9078 27.87 84.123 28.2227 84.4087 28.5296C84.6935 28.8364 85.037 29.0824 85.4374 29.2658C85.8378 29.4501 86.2926 29.5418 86.802 29.5418C87.2334 29.5418 87.6346 29.4534 88.004 29.2775C88.3743 29.1015 88.6901 28.8439 88.9523 28.5062L90.8019 30.4856C90.5246 30.7616 90.2046 31.0001 89.8419 31.1994C89.4792 31.3986 89.1139 31.5604 88.7437 31.683C88.3734 31.8055 88.0191 31.8939 87.6798 31.9473C87.3406 32.0006 87.0474 32.0281 86.8011 32.0281C85.9685 32.0281 85.1827 31.8897 84.4422 31.6138C83.7025 31.3378 83.0625 30.9459 82.5231 30.4398C81.9836 29.9337 81.5556 29.3233 81.2397 28.6096C80.9239 27.8959 80.7656 27.1021 80.7656 26.2275C80.7656 25.3528 80.9239 24.559 81.2397 23.8453C81.5556 23.1316 81.9836 22.5221 82.5231 22.016C83.0625 21.5099 83.7025 21.118 84.4422 20.842C85.1819 20.566 85.9685 20.4276 86.8011 20.4276C87.5098 20.4276 88.2235 20.5619 88.9397 20.8303C89.6568 21.0988 90.2842 21.5249 90.8245 22.1077L88.9054 24.0179H88.9062Z" fill="#50A26C"/>
<path d="M91.9141 26.2273C91.9141 25.3527 92.0724 24.5589 92.3882 23.8452C92.704 23.1315 93.132 22.522 93.6715 22.0159C94.211 21.5098 94.851 21.1179 95.5906 20.8419C96.3303 20.5659 97.1169 20.4275 97.9495 20.4275C98.7822 20.4275 99.5679 20.5659 100.308 20.8419C101.048 21.1179 101.688 21.5098 102.228 22.0159C102.767 22.522 103.195 23.1323 103.511 23.8452C103.827 24.5589 103.985 25.3527 103.985 26.2273C103.985 27.102 103.827 27.8958 103.511 28.6095C103.195 29.3232 102.767 29.9327 102.228 30.4397C101.688 30.9458 101.048 31.3376 100.308 31.6136C99.5688 31.8896 98.7822 32.028 97.9495 32.028C97.1169 32.028 96.3312 31.8896 95.5906 31.6136C94.851 31.3376 94.211 30.9458 93.6715 30.4397C93.132 29.9335 92.704 29.3232 92.3882 28.6095C92.0724 27.8958 91.9141 27.102 91.9141 26.2273ZM94.6885 26.2273C94.6885 26.6567 94.7613 27.0711 94.9079 27.4705C95.0545 27.8699 95.2698 28.2226 95.5555 28.5294C95.8403 28.8363 96.1837 29.0822 96.5841 29.2657C96.9845 29.4499 97.4394 29.5417 97.9487 29.5417C98.4572 29.5417 98.912 29.4499 99.3133 29.2657C99.7137 29.0814 100.057 28.8363 100.342 28.5294C100.627 28.2226 100.843 27.8699 100.989 27.4705C101.136 27.072 101.209 26.6576 101.209 26.2273C101.209 25.7979 101.135 25.3835 100.989 24.9842C100.843 24.5856 100.627 24.2329 100.342 23.9252C100.056 23.6184 99.7137 23.3733 99.3133 23.189C98.912 23.0047 98.458 22.913 97.9487 22.913C97.4402 22.913 96.9854 23.0047 96.5841 23.189C96.1829 23.3733 95.8403 23.6184 95.5555 23.9252C95.2698 24.2321 95.0545 24.5848 94.9079 24.9842C94.7613 25.3835 94.6885 25.7979 94.6885 26.2273Z" fill="#50A26C"/>
<path d="M106.457 20.7036H109.093V22.4295H109.139C109.386 21.9084 109.783 21.444 110.33 21.0371C110.877 20.631 111.614 20.4268 112.539 20.4268C114.28 20.4268 115.437 21.1096 116.007 22.4754C116.408 21.77 116.91 21.2522 117.51 20.922C118.112 20.5927 118.828 20.4276 119.661 20.4276C120.4 20.4276 121.025 20.551 121.534 20.7961C122.042 21.0421 122.454 21.3798 122.771 21.8092C123.087 22.2386 123.315 22.7414 123.453 23.3167C123.592 23.892 123.66 24.5098 123.66 25.1694V31.7521H120.886V25.492C120.886 25.1544 120.855 24.8283 120.794 24.514C120.732 24.1997 120.624 23.9237 120.471 23.6852C120.316 23.4476 120.108 23.2591 119.847 23.1216C119.584 22.9832 119.245 22.9148 118.829 22.9148C118.397 22.9148 118.031 22.9957 117.731 23.1566C117.43 23.3175 117.184 23.5326 116.991 23.8011C116.798 24.0696 116.659 24.3764 116.575 24.7216C116.49 25.0668 116.447 25.4162 116.447 25.7689V31.753H113.673V25.1702C113.673 24.4798 113.526 23.9312 113.234 23.5243C112.941 23.1182 112.455 22.9148 111.777 22.9148C111.315 22.9148 110.925 22.9915 110.609 23.1449C110.294 23.2983 110.031 23.5059 109.824 23.7661C109.616 24.0271 109.465 24.3264 109.373 24.6641C109.281 25.0018 109.234 25.3545 109.234 25.723V31.753H106.46V20.7036H106.457Z" fill="#50A26C"/>
<path d="M5.18699 25.0726C4.94993 25.3086 4.76564 25.5829 4.63831 25.8931C4.51098 26.2033 4.44564 26.5301 4.44564 26.8761C4.44564 27.2305 4.51349 27.5607 4.64752 27.865C4.78071 28.1718 4.965 28.4345 5.1962 28.6563C5.4274 28.8772 5.70049 29.0548 6.01127 29.1816C6.32288 29.3083 6.66382 29.3733 7.02821 29.3733C7.38423 29.3733 7.72181 29.3083 8.03594 29.1816C8.35342 29.0548 8.62567 28.8747 8.851 28.6413C9.07969 28.4111 9.25979 28.1427 9.39382 27.8358C9.52701 27.5315 9.5957 27.2013 9.5957 26.8444C9.5957 26.4817 9.5245 26.1424 9.37958 25.8322C9.23717 25.522 9.00598 25.2244 8.68849 24.9384L9.78837 23.7844C10.6989 24.6107 11.1555 25.6404 11.1555 26.8736C11.1555 27.4639 11.0516 28.0126 10.8438 28.5145C10.6361 29.0165 10.3454 29.4525 9.97517 29.8219C9.60492 30.1904 9.16597 30.4798 8.66169 30.6865C8.1574 30.8933 7.61207 30.9967 7.02821 30.9967C6.44435 30.9967 5.89902 30.8908 5.39473 30.6724C4.89045 30.4573 4.45234 30.1621 4.08125 29.7869C3.711 29.4125 3.42032 28.9723 3.20671 28.4645C2.9931 27.9567 2.88672 27.4139 2.88672 26.8328C2.88672 25.6705 3.28713 24.7049 4.09047 23.9378L5.18699 25.0743V25.0726Z" fill="#9FC44F"/>
<path d="M10.7458 17.7869C11.0063 18.2355 11.1403 18.7575 11.1403 19.3511C11.1403 19.9148 11.0214 20.4284 10.7843 20.8912C10.5473 21.3547 10.2122 21.7441 9.77324 22.0593C9.60403 22.186 9.43565 22.2928 9.26058 22.3778C9.08885 22.4603 8.8987 22.5312 8.69766 22.5846C8.49578 22.6379 8.2763 22.6788 8.0451 22.703C7.8139 22.7297 7.55255 22.738 7.26522 22.738H2.96038V21.1563H7.02481C7.19402 21.1563 7.34229 21.1505 7.47548 21.1355C7.60867 21.1204 7.73349 21.1029 7.8516 21.0821C8.36426 20.9729 8.77975 20.7369 9.09974 20.3709C9.41974 20.0048 9.57973 19.5679 9.57973 19.0551C9.57973 18.7391 9.5144 18.4415 9.3812 18.1613C9.24801 17.8812 9.06372 17.6419 8.82666 17.4443C8.70771 17.3467 8.59797 17.2675 8.49494 17.2083C8.39107 17.1491 8.27295 17.1024 8.13892 17.0699C8.00573 17.0349 7.85411 17.014 7.67904 17.0024C7.50731 16.9932 7.2937 16.9873 7.0357 16.9873H2.95703V15.3615H10.9887V16.9907H10.6034C10.4342 16.9907 10.2775 16.9698 10.1293 16.9315C9.98098 16.8931 9.81177 16.8339 9.62497 16.7547C10.1108 16.994 10.4844 17.3392 10.7458 17.7878V17.7869Z" fill="#9FC44F"/>
<path d="M2.96043 13.6964V12.0706H10.9921V13.6964H2.96043ZM0.289062 13.6814V12.0555H2.04149V13.6814H0.289062Z" fill="#9FC44F"/>
<path d="M20.3223 28.8973C20.2511 28.9006 20.1799 28.9031 20.1062 28.9031C19.6731 28.9123 19.1161 28.9181 18.4308 28.9181H16.1063V13.1244H18.3714C19.178 13.1244 19.9931 13.1803 20.8174 13.2895C21.6417 13.3988 22.3771 13.5638 23.023 13.7856C23.8087 14.0249 24.5174 14.3785 25.1515 14.8479C25.7857 15.3173 26.3285 15.8693 26.7825 16.4971C27.2365 17.1258 27.5833 17.8312 27.8263 18.61C27.9712 19.076 28.0725 19.5546 28.1287 20.0407C28.3247 20.1024 28.5173 20.1733 28.7067 20.2559C29.4773 20.5894 30.1592 21.0438 30.7347 21.6099C30.9776 21.8492 31.1971 22.1119 31.399 22.3862C31.461 21.9143 31.4936 21.439 31.4936 20.9612C31.4936 19.4062 31.2029 17.9721 30.6249 16.653C30.0469 15.3373 29.2403 14.2009 28.2149 13.242C27.1863 12.2856 25.9616 11.5361 24.5451 10.9991C23.1269 10.463 21.588 10.1912 19.9311 10.1912H12.8008V31.7563H19.7502C20.6901 31.7563 21.5261 31.718 22.2674 31.6379C22.4542 31.6171 22.6377 31.5937 22.8161 31.5646C22.3562 31.3053 21.9357 30.9918 21.5646 30.6324C21.0519 30.1421 20.6364 29.5585 20.3223 28.8973Z" fill="#50A26C"/>
<path d="M24.0637 26.9288V24.9602H29.7591C29.4718 24.1689 29.0178 23.5436 28.3954 23.0925C27.773 22.6406 27.0526 22.4138 26.2342 22.4138C25.7031 22.4138 25.2172 22.5055 24.7724 22.6881C24.3276 22.8707 23.9423 23.1275 23.613 23.4586C23.2838 23.7887 23.0258 24.179 22.839 24.6209C22.6522 25.0661 22.5601 25.5472 22.5601 26.07C22.5601 26.5919 22.6522 27.073 22.839 27.5191C23.0258 27.9619 23.2805 28.3512 23.6013 28.6814C23.9247 29.0116 24.31 29.2717 24.7632 29.4543C25.2139 29.6369 25.6972 29.7287 26.2132 29.7287C26.7292 29.7287 27.2067 29.6403 27.6423 29.4602C28.0779 29.2834 28.5051 28.9849 28.9198 28.5722L30.6395 30.0297C30.0825 30.6642 29.424 31.1453 28.6743 31.4755C27.9212 31.8056 27.0945 31.9716 26.1931 31.9716C25.3336 31.9716 24.5387 31.8206 23.8066 31.523C23.0769 31.2253 22.4428 30.8151 21.9033 30.2981C21.3664 29.7787 20.9484 29.1617 20.646 28.4446C20.3469 27.7276 20.1953 26.9488 20.1953 26.1108C20.1953 25.2729 20.3528 24.4908 20.6694 23.7679C20.9836 23.045 21.4133 22.4138 21.9595 21.8819C22.5048 21.3474 23.1456 20.9288 23.8836 20.6245C24.6216 20.3177 25.4132 20.1667 26.2584 20.1667C27.0735 20.1667 27.8442 20.3235 28.5679 20.6362C29.2917 20.9488 29.9225 21.3682 30.4594 21.9019C30.9964 22.433 31.4227 23.0558 31.7369 23.7729C32.051 24.4866 32.2085 25.2512 32.2085 26.0566C32.2085 26.1984 32.2026 26.3285 32.1875 26.4494C32.1725 26.5703 32.1524 26.7295 32.1222 26.9271H24.0646L24.0637 26.9288Z" fill="#9FC44F"/>
<path d="M34.0234 20.1859H36.3865V22.0269C36.8875 21.3156 37.4186 20.7962 37.9756 20.4777C38.5327 20.1558 39.1794 19.9966 39.909 19.9966C39.9509 19.9966 40.0095 19.9966 40.0807 19.9966C40.1519 19.9966 40.2231 20.0024 40.2968 20.0174L39.9525 22.3279C39.5521 22.3837 39.2112 22.4638 38.9331 22.5638C38.6541 22.6639 38.3551 22.8206 38.041 23.0333C37.7268 23.2484 37.4596 23.4818 37.246 23.7386C37.0324 23.9954 36.8607 24.2873 36.73 24.615C36.6027 24.9426 36.5105 25.3262 36.4628 25.7597C36.4125 26.1933 36.389 26.7044 36.389 27.2881V31.7589H34.026V20.1859H34.0234Z" fill="#9FC44F"/>
<path d="M41.24 20.1858H43.5402V20.7203C43.5402 21.1189 43.4539 21.5816 43.2822 22.1102C43.6265 21.4699 44.1124 20.9713 44.744 20.6144C45.3722 20.2575 46.0985 20.0799 46.9144 20.0799C47.5159 20.0799 48.0796 20.18 48.6015 20.3776C49.1234 20.5786 49.5858 20.8762 49.9887 21.2748C50.1043 21.3898 50.1964 21.4957 50.2676 21.5966C50.3388 21.6967 50.4394 21.8476 50.57 22.0485C51.628 20.7203 52.9474 20.0599 54.5247 20.0599C55.2988 20.0599 56.0334 20.2284 56.7278 20.5644C57.4214 20.8979 57.9994 21.3732 58.456 21.9868C58.6277 22.2286 58.776 22.4621 58.8974 22.683C59.0189 22.904 59.1194 23.1491 59.1998 23.4209C59.2802 23.6928 59.333 23.9938 59.3598 24.3206C59.3891 24.6483 59.4042 25.026 59.4042 25.4537V31.763H56.9758V25.7906C56.9758 25.5488 56.9758 25.3328 56.9758 25.1469C56.9758 24.946 56.9607 24.7659 56.9339 24.6099C56.8476 23.9221 56.5578 23.3676 56.0627 22.9457C55.5676 22.5238 54.9628 22.3112 54.2483 22.3112C53.7474 22.3112 53.3026 22.4171 52.9139 22.633C52.5285 22.8481 52.2111 23.155 51.9681 23.5569C51.8676 23.7136 51.7905 23.8637 51.7311 24.0088C51.6749 24.153 51.6272 24.3064 51.592 24.4724C51.5568 24.6375 51.5359 24.8292 51.5267 25.0535C51.5175 25.2745 51.5149 25.5438 51.5149 25.859V31.7664H49.1519V25.8348C49.1519 25.6197 49.1519 25.4279 49.1519 25.2536C49.1519 25.0794 49.1284 24.9376 49.0865 24.8226C49.0572 24.4657 48.965 24.1347 48.805 23.8337C48.6476 23.5327 48.449 23.2734 48.212 23.0491C47.9749 22.8281 47.6993 22.6505 47.3818 22.5205C47.0643 22.3904 46.7268 22.3287 46.3682 22.3287C45.9653 22.3287 45.5674 22.4171 45.1704 22.5972C44.7733 22.7773 44.4533 23.0224 44.2095 23.3376C43.9666 23.6236 43.8033 23.9362 43.7237 24.2731C43.6433 24.6091 43.6047 25.0785 43.6047 25.6805V31.7597H41.2416V20.1858H41.2383H41.24Z" fill="#9FC44F"/>
<path d="M71.2761 21.9509C71.2317 21.7442 71.2108 21.499 71.2108 21.213V20.1858H73.511V31.7563H71.1454V30.8592C71.1454 30.5874 71.1689 30.3547 71.2191 30.163C71.2694 29.9712 71.3582 29.7377 71.4889 29.4667C71.4026 29.5818 71.3372 29.6702 71.2962 29.7352C71.2543 29.8003 71.2041 29.8736 71.1446 29.9595C70.0983 31.2994 68.7848 31.9689 67.1958 31.9689C66.4075 31.9689 65.6628 31.8122 64.96 31.4995C64.2572 31.1868 63.6406 30.7616 63.1104 30.2222C62.5793 29.6819 62.1613 29.054 61.853 28.3361C61.5448 27.6191 61.3906 26.8603 61.3906 26.0665C61.3906 25.2578 61.5448 24.4965 61.853 23.7853C62.1613 23.0741 62.5852 22.4512 63.1246 21.9201C63.6641 21.389 64.2865 20.9637 64.9985 20.6511C65.7097 20.3384 66.4745 20.1816 67.2904 20.1816C67.9815 20.1816 68.6156 20.2934 69.197 20.5118C69.7783 20.7328 70.2759 21.0663 70.6939 21.5065C70.8095 21.6483 70.9368 21.8075 71.0826 21.9876C71.225 22.1677 71.3758 22.392 71.5333 22.663C71.4059 22.397 71.3197 22.1552 71.2753 21.9484L71.2761 21.9509ZM65.9845 22.718C65.5397 22.9073 65.1485 23.1666 64.8193 23.4943C64.4875 23.8245 64.2295 24.2147 64.0427 24.6599C63.8559 25.1085 63.7613 25.5921 63.7613 26.1116C63.7613 26.616 63.8559 27.0879 64.0427 27.5307C64.2295 27.9734 64.4842 28.3536 64.8109 28.6755C65.1342 28.9973 65.5162 29.2541 65.9585 29.4426C66.3974 29.6318 66.8691 29.726 67.3725 29.726C67.891 29.726 68.3802 29.6318 68.8401 29.4426C69.3 29.2533 69.7029 28.994 70.0497 28.6638C70.3965 28.3361 70.6637 27.9526 70.8589 27.519C71.0516 27.0854 71.1496 26.616 71.1496 26.1116C71.1496 25.5921 71.0516 25.111 70.8589 24.6599C70.6629 24.2114 70.4024 23.822 70.0707 23.4943C69.7389 23.1641 69.3469 22.904 68.8937 22.718C68.4397 22.5288 67.9539 22.4345 67.4378 22.4345C66.916 22.4345 66.4326 22.5263 65.9853 22.718H65.9845Z" fill="#9FC44F"/>
<path d="M128.008 41.4233L125.664 28.8314C125.598 28.4829 125.978 28.2202 126.284 28.4037L137.407 35.0698L133.173 36.1413L135.866 40.0042C136.082 40.3144 136.002 40.7421 135.688 40.9514L134.159 41.9811C133.85 42.1879 133.435 42.1112 133.222 41.8102L130.539 38.0356L128.01 41.4233H128.008Z" fill="#9FC44F"/>
<path d="M133.779 42.2647C133.512 42.2647 133.245 42.1405 133.082 41.9078L130.535 38.3225L128.145 41.5243C128.103 41.5777 128.036 41.6043 127.97 41.5893C127.905 41.5743 127.855 41.5218 127.843 41.4568L125.498 28.8648C125.456 28.6372 125.549 28.4129 125.739 28.2837C125.931 28.1511 126.172 28.1453 126.373 28.2628L137.496 34.929C137.556 34.964 137.585 35.0291 137.577 35.0974C137.568 35.165 137.517 35.2183 137.452 35.2358L133.455 36.2481L136.008 39.9101C136.138 40.0993 136.185 40.3228 136.144 40.5471C136.102 40.7714 135.975 40.9665 135.786 41.0932L134.256 42.123C134.105 42.2172 133.942 42.2647 133.779 42.2647ZM130.535 37.8681C130.591 37.8681 130.642 37.8948 130.674 37.939L133.357 41.7136C133.517 41.9379 133.831 41.9937 134.063 41.8403L135.592 40.8106C135.708 40.7339 135.782 40.6155 135.808 40.4829C135.835 40.347 135.805 40.2111 135.725 40.0993L133.033 36.2364C133.001 36.1922 132.995 36.133 133.012 36.0796C133.033 36.0263 133.074 35.9879 133.128 35.9762L136.967 35.0057L126.194 28.5463C126.107 28.4963 126.01 28.4988 125.93 28.5555C125.849 28.6114 125.811 28.7031 125.829 28.8006L128.103 41.0115L130.401 37.934C130.431 37.8923 130.482 37.869 130.535 37.869V37.8681Z" fill="#50A26C"/>
<path d="M120.702 16.5831L120.663 11.7846C120.663 11.637 120.542 11.522 120.397 11.522C120.323 11.522 120.258 11.5512 120.21 11.602C120.162 11.6495 120.133 11.7171 120.133 11.7913L120.171 16.5898C120.171 16.7373 120.293 16.8524 120.438 16.8524C120.586 16.8491 120.704 16.7315 120.702 16.5839V16.5831Z" fill="#50A26C"/>
<path d="M125.565 18.9143C125.669 19.0177 125.838 19.0144 125.941 18.911L129.324 15.4908C129.428 15.3874 129.424 15.219 129.321 15.1164C129.217 15.013 129.047 15.0164 128.944 15.1198L125.562 18.54C125.458 18.6459 125.458 18.8143 125.565 18.9143Z" fill="#50A26C"/>
<path d="M132.814 24.2046C132.962 24.2046 133.078 24.0838 133.078 23.9387C133.078 23.7911 132.956 23.676 132.811 23.676L127.99 23.7177C127.917 23.7177 127.851 23.7469 127.804 23.7978C127.756 23.8453 127.727 23.9128 127.727 23.987C127.727 24.1346 127.848 24.2497 127.993 24.2497L132.814 24.2055V24.2046Z" fill="#50A26C"/>
</g>
</g>
<defs>
<clipPath id="clip0_844_40619">
<rect width="137.287" height="52.0956" fill="white" transform="translate(0.289062 0.191162)"/>
</clipPath>
<clipPath id="clip1_844_40619">
<rect width="137.29" height="32.0734" fill="white" transform="translate(0.289062 10.1912)"/>
</clipPath>
</defs>
</svg>
