<svg width="138" height="53" viewBox="0 0 138 53" fill="none" xmlns="http://www.w3.org/2000/svg">
<g clip-path="url(#clip0_844_40534)">
<path d="M18.4212 10.1102C9.69425 10.0888 2.6024 17.1582 2.581 25.9006C2.581 25.9149 2.581 25.9299 2.581 25.9442C2.56031 34.6902 9.63789 41.8075 18.3556 41.8161C27.1603 41.8218 34.2286 34.7645 34.235 25.9649C34.2436 17.1982 27.1724 10.1102 18.4212 10.1102ZM36.2439 25.9564C36.2496 35.8187 28.2454 43.8371 18.3998 43.8286C8.55496 43.82 0.579929 35.8244 0.574222 25.9678C0.568515 16.1112 8.5728 8.0863 18.4184 8.09559C28.2632 8.10488 36.2382 16.0998 36.2439 25.9564Z" fill="#1C1C1C"/>
<path d="M16.394 16.723C17.559 17.0503 18.7418 17.329 19.9018 17.6792C21.1324 18.0515 22.3687 18.4232 23.5665 18.892C25.9178 19.8125 27.2347 21.617 27.7484 24.0468C28.063 25.5326 28.0423 27.5872 27.7184 28.8586C27.2098 28.7221 26.699 28.5906 26.1932 28.4391C26.1383 28.4205 26.0926 28.314 26.0691 28.2361C25.4149 26.1879 24.0773 24.8029 22.0519 24.0975C21.8657 24.0397 21.6667 24.0361 21.4784 24.089C20.1172 24.4699 18.7525 24.8508 17.3257 24.8479C16.6394 24.8479 15.9503 24.7379 15.2633 24.69C15.0956 24.67 14.9258 24.6793 14.761 24.7164C13.8258 24.973 12.8827 25.1724 11.9046 25.1302C11.1363 25.0966 10.3822 24.918 9.68096 24.6021C8.5752 24.1104 8.00449 23.235 7.79618 22.0708C7.62139 21.0824 7.71913 20.1233 8.05514 19.1285C8.59304 19.8453 9.02393 20.6443 10.0412 20.8923C9.45268 20.0883 9.35137 19.2472 9.49762 18.3631C9.64315 17.4962 9.94635 16.7044 10.6662 16.0905C11.264 17.6342 12.5374 18.208 14.0548 18.6068C13.2843 17.2697 13.5554 16.162 14.6169 15.1643C14.6883 15.2715 14.7482 15.3637 14.8103 15.4566C15.1955 16.0626 15.6992 16.5257 16.3976 16.7244" fill="#1C1C1C"/>
<path d="M13.9 33.8841C14.5449 33.8841 15.1898 33.8963 15.8347 33.8841C16.4682 33.8727 16.9141 33.4553 16.9405 32.8178C16.9669 32.1361 16.9704 31.4514 16.9405 30.7661C16.9077 30.0578 16.4703 29.6498 15.7662 29.644C14.5235 29.6319 13.2815 29.6355 12.0416 29.644C11.376 29.6498 10.9208 30.1114 10.9094 30.7782C10.898 31.445 10.8973 32.1096 10.9094 32.7735C10.9216 33.4375 11.3667 33.8727 12.0273 33.8813C12.6487 33.8913 13.2729 33.8827 13.9 33.8827V33.8841ZM23.2483 29.6398H21.3999C20.6894 29.6576 20.282 29.9935 20.2406 30.6939C20.1985 31.395 20.1964 32.0975 20.2349 32.7993C20.2734 33.5232 20.6573 33.8805 21.3906 33.892C22.612 33.9127 23.8368 33.9127 25.0589 33.892C25.8201 33.8805 26.2446 33.4332 26.266 32.6685C26.2809 32.0696 26.2809 31.4714 26.266 30.8733C26.2453 30.0693 25.7965 29.6462 24.9847 29.6405C24.4061 29.6369 23.8276 29.6405 23.249 29.6405L23.2483 29.6398ZM18.6676 28.8265C20.8106 28.8265 22.9544 28.8322 25.0974 28.8229C26.007 28.8229 26.8395 29.1595 27.6956 29.3982C27.8169 29.4311 27.921 29.6512 27.971 29.8063C28.0152 29.9435 27.9795 30.1071 27.9795 30.2586C27.9795 30.7768 27.971 30.7546 27.5187 30.9883C27.3582 31.0798 27.2426 31.2342 27.2005 31.4135C27.1342 31.8645 27.0971 32.319 27.0906 32.7742C27.0607 33.9499 26.3651 34.6488 25.1973 34.6488C23.717 34.6488 22.2403 34.6517 20.76 34.6452C19.8682 34.6452 19.3924 34.1693 19.3653 33.2724C19.3596 33.0465 19.3653 32.8171 19.3624 32.5877C19.3589 32.2182 19.3681 31.8466 19.3418 31.4771C19.3118 31.0912 19.0921 30.8368 18.7889 30.7653C18.4707 30.691 18.1083 30.8204 17.9478 31.1019C17.865 31.2499 17.8194 31.415 17.8144 31.5843C17.7994 32.1261 17.8058 32.6685 17.8087 33.2073C17.8144 34.1335 17.3136 34.6452 16.3997 34.6488H11.936C10.8245 34.6488 10.0962 33.9013 10.0905 32.7785C10.0905 32.3533 10.0655 31.9281 10.0155 31.5057C9.97631 31.2141 9.84005 30.979 9.48978 30.9161C9.38491 30.8983 9.24865 30.7167 9.23082 30.5945C9.19158 30.3144 9.21013 30.0257 9.22154 29.7427C9.23082 29.5218 9.36993 29.4061 9.57539 29.3567C10.8959 29.0323 12.2121 28.7343 13.6032 28.8057C15.2882 28.8865 16.9797 28.8236 18.6655 28.8265L18.6683 28.825L18.6676 28.8265Z" fill="#1C1C1C"/>
<path d="M9.56941 25.6639C10.0959 25.7833 10.5981 25.9262 11.1103 26.0034C11.6226 26.0806 12.1419 26.0927 12.6827 26.1349C12.6384 26.2035 12.5963 26.2714 12.5464 26.3343C12.0948 26.9024 11.721 27.5135 11.4792 28.2038C11.4556 28.2696 11.4135 28.3646 11.36 28.3796C10.8371 28.5376 10.3078 28.6834 9.74633 28.8413C9.56156 27.7929 9.50235 26.7266 9.57012 25.6639H9.56941Z" fill="#1C1C1C"/>
<path d="M22.0891 32.0304C21.8987 32.0633 21.7531 32.0854 21.6133 32.1112C21.4385 31.7746 21.4649 31.3944 21.6996 31.1256C21.975 30.8069 22.3267 30.6704 22.7455 30.789C23.135 30.8991 23.379 31.1614 23.441 31.5666C23.5002 31.9475 23.4054 32.2834 23.0815 32.5221C22.7576 32.7608 22.4009 32.7636 22.0321 32.6207C21.8773 32.5614 21.8594 32.4685 21.9336 32.3348C21.9793 32.2455 22.0235 32.1562 22.0891 32.0311V32.0304Z" fill="#1C1C1C"/>
<path d="M13.9674 32.4731C14.0359 32.333 14.0951 32.2079 14.1757 32.0479C13.9945 32.0686 13.8426 32.0865 13.697 32.1029C13.4837 31.6655 13.6385 31.1374 14.0545 30.8851C14.4675 30.6314 15.0446 30.7415 15.3593 31.1324C15.6539 31.5019 15.6118 32.1 15.2701 32.4309C14.8955 32.7868 14.3905 32.8104 13.9681 32.4738L13.9674 32.4731Z" fill="#1C1C1C"/>
<path d="M44.6348 30.5634C45.2184 30.5634 45.6564 30.4969 46.0801 30.2975C46.8898 29.8859 47.3671 28.9418 47.3671 27.6797C47.3671 26.2704 46.7835 25.3535 45.9075 24.9783C45.4966 24.8061 45.1113 24.7796 44.6341 24.7796H43.9428V30.5619L44.6341 30.5634H44.6348ZM40.5078 30.6963H41.5686V24.6496H40.5078V22.9215H44.6869C45.4167 22.9215 46.0402 22.9487 46.6373 23.1209C48.5214 23.6526 49.8212 25.287 49.8212 27.6661C49.8212 29.8458 48.7069 31.4695 46.969 32.1056C46.2792 32.3579 45.5622 32.4243 44.7004 32.4243H40.5085V30.697L40.5078 30.6963Z" fill="#1C1C1C"/>
<path d="M54.6092 28.1585C54.6092 27.6139 54.2511 27.1487 53.7467 27.1487C53.0833 27.1487 52.7651 27.6275 52.6459 28.1585H54.6085H54.6092ZM53.7995 25.4206C55.8427 25.4206 56.9841 26.8299 56.9841 28.7281C56.9841 28.9539 56.9292 29.4192 56.9292 29.4192H52.591C52.7637 30.296 53.4535 30.6812 54.1833 30.6812C55.1913 30.6812 56.1095 30.0302 56.1095 30.0302L56.9456 31.6253C56.9456 31.6253 55.8448 32.5822 54.0007 32.5822C51.5595 32.5822 50.2461 30.8142 50.2461 28.9932C50.2447 26.9886 51.598 25.4199 53.8002 25.4199L53.7995 25.4206Z" fill="#1C1C1C"/>
<path d="M57.0898 25.58H60.7253V27.2415H60.1153L60.8987 29.7135C60.9935 30.0073 61.0563 30.3103 61.0841 30.6176H61.1391C61.1669 30.3103 61.229 30.0073 61.3245 29.7135L62.1079 27.2415H61.4979V25.58H65.1334V27.2415H64.3629L62.466 32.4235H59.7608L57.8639 27.2415H57.0934L57.0913 25.58H57.0898Z" fill="#1C1C1C"/>
<path d="M69.5513 28.1585C69.5513 27.6139 69.1932 27.1487 68.6888 27.1487C68.0254 27.1487 67.7072 27.6275 67.5881 28.1585H69.5506H69.5513ZM68.7416 25.4206C70.7848 25.4206 71.9255 26.8299 71.9255 28.7281C71.9255 28.9539 71.8706 29.4192 71.8706 29.4192H67.5324C67.7051 30.296 68.3949 30.6812 69.1247 30.6812C70.1335 30.6812 71.0509 30.0302 71.0509 30.0302L71.887 31.6253C71.887 31.6253 70.7862 32.5822 68.9421 32.5822C66.5009 32.5822 65.1875 30.8142 65.1875 28.9932C65.1875 26.9886 66.5408 25.4199 68.7431 25.4199L68.7416 25.4206Z" fill="#1C1C1C"/>
<path d="M72.7452 24.5831H71.8164V22.9215H75.0402V29.7665C75.0402 30.4176 75.1594 30.6434 75.6766 30.6434C75.8228 30.6434 75.9555 30.6298 75.9555 30.6298V32.4486C75.7265 32.4744 75.4961 32.4879 75.2657 32.4887C74.045 32.4887 72.7445 32.1956 72.7445 29.898V24.5831H72.7452Z" fill="#1C1C1C"/>
<path d="M80.1628 30.6697C80.9989 30.6697 81.7151 30.0451 81.7151 29.0217C81.7151 27.9983 80.9996 27.3344 80.1628 27.3344C79.326 27.3344 78.6112 27.9854 78.6112 29.0217C78.6112 30.0579 79.3274 30.6718 80.1628 30.6718V30.6697ZM80.1492 25.4198C82.3115 25.4198 84.0365 26.8684 84.0365 29.021C84.0365 31.1735 82.3123 32.5828 80.1628 32.5828C78.0133 32.5828 76.2891 31.1607 76.2891 29.021C76.2891 26.8813 78.0133 25.4198 80.1492 25.4198Z" fill="#1C1C1C"/>
<path d="M88.8158 30.6833C89.5313 30.6833 90.1555 30.0987 90.1555 29.0488C90.1555 27.999 89.6112 27.3608 88.8158 27.3608C88.1259 27.3608 87.4753 27.8661 87.4753 29.0488C87.4739 29.8721 87.9119 30.6833 88.8158 30.6833ZM85.2452 33.4211V27.533C85.2452 27.3472 85.139 27.2408 84.9535 27.2408H84.3164V25.5792H86.4259C87.0887 25.5792 87.3013 25.8986 87.3013 26.1509V26.1909C87.2998 26.2488 87.2955 26.3067 87.2877 26.3639H87.3141C87.3141 26.3639 87.9376 25.4198 89.3836 25.4198C91.2413 25.4198 92.4619 26.882 92.4619 29.0081C92.4619 31.1342 91.0951 32.5835 89.2774 32.5835C88.163 32.5835 87.5395 31.9318 87.5395 31.9318H87.5131C87.5131 31.9318 87.5395 32.1712 87.5395 32.5164V33.4204H88.402V35.0813H84.3849V33.4204H85.2445L85.2452 33.4211Z" fill="#1C1C1C"/>
<path d="M97.1177 28.1584C97.1177 27.6138 96.7596 27.1486 96.2552 27.1486C95.5946 27.1486 95.2736 27.6274 95.1545 28.1584H97.117H97.1177ZM96.308 25.4205C98.3512 25.4205 99.4919 26.8298 99.4919 28.728C99.4919 28.9538 99.437 29.419 99.437 29.419H95.0988C95.2715 30.2959 95.9613 30.6811 96.6911 30.6811C97.6999 30.6811 98.6173 30.0301 98.6173 30.0301L99.4534 31.6252C99.4534 31.6252 98.3526 32.5821 96.5085 32.5821C94.0673 32.5821 92.7539 30.814 92.7539 28.9931C92.7539 26.9885 94.1072 25.4198 96.3095 25.4198L96.308 25.4205Z" fill="#1C1C1C"/>
<path d="M100 30.7628H100.928V27.5333C100.928 27.3474 100.822 27.241 100.636 27.241H100V25.5794H102.162C102.787 25.5794 103.131 25.8317 103.131 26.4563V26.8129C103.133 26.9287 103.124 27.0444 103.105 27.1588H103.131C103.424 26.2283 104.287 25.4579 105.307 25.4579C105.396 25.4593 105.485 25.4679 105.572 25.4843V27.7448C105.42 27.7169 105.264 27.7033 105.109 27.7048C103.834 27.7048 103.225 28.5152 103.225 29.7651V30.7621H104.153V32.423H100.001V30.7635L100 30.7628Z" fill="#1C1C1C"/>
<path d="M105.758 30.0066H107.684V30.3518C107.684 30.6577 108.014 30.8435 108.679 30.8435C109.223 30.8435 109.515 30.7105 109.515 30.4447C109.515 30.0195 109.051 29.9659 108.176 29.6729C107.18 29.342 106 28.8617 106 27.4803C106 25.8723 107.618 25.4199 108.932 25.4199C109.98 25.4199 111.546 25.7923 111.546 26.9086V27.839H109.619V27.5332C109.619 27.3202 109.42 27.1608 108.93 27.1608C108.558 27.1608 108.28 27.2409 108.28 27.5067C108.28 27.9184 108.823 28.0785 109.474 28.2507C110.508 28.5294 111.795 28.9553 111.795 30.3775C111.795 31.9212 110.296 32.5822 108.678 32.5822C107.457 32.5822 105.761 32.0634 105.761 30.9207L105.759 30.0059L105.758 30.0066Z" fill="#1C1C1C"/>
<path d="M112.547 30.2443H114.723V32.4233H112.547V30.2443Z" fill="#1C1C1C"/>
<path d="M115.774 30.6963H116.835V24.6496H115.774V22.9215H119.237L122.208 27.9591C122.433 28.3451 122.606 28.9296 122.606 28.9296H122.661C122.661 28.9296 122.581 28.2915 122.581 27.8662V24.6503H121.467V22.9222H126.014V24.6503H124.952V32.4229H122.564L119.579 27.4124C119.354 27.0265 119.181 26.4419 119.181 26.4419H119.126C119.126 26.4419 119.206 27.0794 119.206 27.5053V30.6949H120.32V32.4222H115.77L115.774 30.6963Z" fill="#1C1C1C"/>
<path d="M130.504 28.1585C130.504 27.6139 130.146 27.1487 129.641 27.1487C128.981 27.1487 128.66 27.6275 128.54 28.1585H130.504ZM129.694 25.4206C131.736 25.4206 132.878 26.8299 132.878 28.7281C132.878 28.9539 132.823 29.4192 132.823 29.4192H128.487C128.659 30.296 129.349 30.6812 130.079 30.6812C131.087 30.6812 132.005 30.0302 132.005 30.0302L132.84 31.6267C132.84 31.6267 131.739 32.5837 129.895 32.5837C127.453 32.5837 126.141 30.8156 126.141 28.9946C126.139 26.9879 127.492 25.4199 129.695 25.4199L129.694 25.4206Z" fill="#1C1C1C"/>
<path d="M134.042 27.2413H133.113V25.5797H134.108V23.7323H136.337V25.5797H137.768V27.2413H136.337V29.6604C136.337 30.4837 137.12 30.6038 137.558 30.6038C137.744 30.6038 137.863 30.5902 137.863 30.5902V32.4511C137.656 32.479 137.447 32.4926 137.238 32.4912C136.15 32.4912 134.041 32.1982 134.041 29.9005L134.042 27.2413Z" fill="#1C1C1C"/>
</g>
<defs>
<clipPath id="clip0_844_40534">
<rect width="137.287" height="52.0956" fill="white" transform="translate(0.574219 0.0955811)"/>
</clipPath>
</defs>
</svg>
