<svg width="138" height="53" viewBox="0 0 138 53" fill="none" xmlns="http://www.w3.org/2000/svg">
<g clip-path="url(#clip0_844_40601)">
<path d="M136.017 18.7089C132.478 23.2851 125.409 33.5777 118.528 32.267L116.953 38.4953L124.595 32.0319L135.237 35.5003L131.84 26.673L136.017 18.7089Z" fill="#2B374C"/>
<path d="M111.113 17.369C112.51 17.369 113.637 18.5058 113.637 19.9518C113.637 21.3978 112.513 22.5507 111.093 22.5507C109.673 22.5507 108.543 21.4075 108.543 19.9518C108.543 18.4962 109.689 17.369 111.093 17.369H111.113ZM111.09 17.7651C109.953 17.7651 109.032 18.7474 109.032 19.9518C109.032 21.1563 109.953 22.1546 111.113 22.1546C112.253 22.1643 113.164 21.1756 113.164 19.9583C113.164 18.7409 112.253 17.7684 111.103 17.7684H111.09V17.7651ZM110.614 21.4525H110.15V18.567C110.395 18.5316 110.62 18.4962 110.965 18.4962C111.399 18.4962 111.686 18.5799 111.869 18.7184C112.03 18.8472 112.127 19.0469 112.127 19.3174C112.127 19.6845 111.869 19.9261 111.567 20.0162V20.0323C111.821 20.0806 111.992 20.3157 112.053 20.7376C112.111 21.182 112.179 21.3592 112.233 21.4493H111.747C111.676 21.3592 111.612 21.0822 111.547 20.7118C111.48 20.3544 111.293 20.2062 110.926 20.2062H110.61V21.4493L110.614 21.4525ZM110.614 19.8616H110.942C111.316 19.8616 111.644 19.7167 111.644 19.3689C111.644 19.1113 111.467 18.8633 110.948 18.8633C110.797 18.8633 110.691 18.8697 110.617 18.8891V19.8649L110.614 19.8616Z" fill="#2B374C"/>
<path d="M137.437 15.8008L128.53 19.0276L125.275 13.0956L121.678 22.1L113.766 26.0064C121.124 32.6566 134.803 18.2934 137.437 15.8008Z" fill="#2B374C"/>
<path d="M55.626 38.0025L59.2649 17.4882H56.006L52.3801 38.0025H55.6293H55.626ZM32.6081 21.7553L29.7517 38.0025H32.9301C33.3455 35.7256 34.128 32.3152 35.152 29.4232C37.0068 24.2158 40.1401 24.4959 40.1401 24.4959L41.0868 21.0694C37.0133 21.0243 35.3742 25.636 34.5981 27.7164L35.6254 21.7489H32.6048L32.6081 21.7553ZM66.5232 34.7402C66.5296 37.0686 67.032 38.0057 67.032 38.0057H69.0446L72.6641 17.4915H69.4117L68.6131 21.7586C68.2396 21.6587 67.631 21.5363 66.8935 21.5363C61.4707 21.5363 58.3374 28.7695 58.3374 33.7547C58.3374 36.3375 59.2649 38.3342 61.5287 38.3342C62.3241 38.3342 64.7843 38.7078 66.5264 34.7434L66.5232 34.7402ZM61.767 33.8159V33.7837C61.767 31.2041 63.303 23.5684 67.1801 23.5684C67.7147 23.5684 68.0592 23.6715 68.3619 23.7552C67.9304 26.0128 67.2284 29.2976 66.0627 31.9867C65.3961 33.5776 64.1596 35.7128 62.9005 35.7128C61.7895 35.7128 61.767 34.2925 61.767 33.8159ZM29.7775 27.156C29.7775 24.2415 28.3091 21.4333 24.9794 21.4333C19.7112 21.4333 17.1221 28.0062 17.1221 32.2411V32.2733C17.1221 35.9028 19.0285 38.3342 21.9717 38.3342C27.2013 38.3342 29.7743 31.7806 29.7743 27.156H29.7775ZM20.5033 33.6774V33.6324C20.5033 29.858 22.181 23.3656 24.7057 23.3656C25.9744 23.3656 26.3898 24.8341 26.3898 26.0643C26.3898 28.4925 25.047 36.3343 22.2455 36.3343C20.8801 36.3343 20.5033 34.6404 20.5033 33.6774ZM12.9745 34.9527C15.6022 31.9996 16.6069 27.0079 16.6069 23.9034C16.6069 16.0133 10.73 16.3063 8.07979 16.3063H3.93861L0.148438 38.0025H4.89501C7.28762 38.0025 10.4112 38.0122 12.9745 34.9463V34.9527ZM4.15759 35.7128L7.13949 18.58H8.53384C9.63515 18.58 10.5271 18.5961 11.2903 19.0791C12.6911 19.9487 12.7877 22.0097 12.7877 22.8664C12.7877 25.7197 11.9022 32.3699 9.14568 34.708C7.9864 35.687 6.6629 35.7095 5.47465 35.7095H4.15759V35.7128ZM92.5328 25.1497C92.5328 25.7809 92.024 28.8435 91.7857 30.5858C91.0193 36.2248 91.6311 38.0057 91.6311 38.0057H93.6437L95.5179 27.2462C95.6209 26.5731 95.8335 25.3075 95.8335 24.4895C95.8335 22.5218 94.6742 21.4301 93.1381 21.4301C90.8164 21.4301 88.968 23.7198 87.7636 26.4282L88.5655 21.7553H85.5707L82.7305 38.0025H85.9024C86.6881 33.7193 87.3611 30.4828 88.5107 27.6455C88.968 26.5248 90.2464 24.0515 91.6311 24.0515C91.937 24.0515 92.5328 24.2029 92.5328 25.1465V25.1497ZM96.4002 35.6258C96.4002 37.3906 97.5981 38.2601 99.1052 38.2601C100.081 38.2601 101.475 37.9671 102.728 37.2908L102.09 35.3778C101.556 35.6516 100.976 35.9607 100.413 35.9607C99.9746 35.9607 99.7074 35.6451 99.7074 35.2168C99.7074 34.6919 99.8007 34.1412 99.936 33.3812L101.601 23.8132H104.09L104.47 21.7328H101.981L102.728 17.4206H99.6397L96.69 33.3006C96.5419 34.1798 96.4002 34.9399 96.4002 35.6258ZM80.6245 34.2539C78.7342 35.555 77.6844 35.9801 76.86 35.9801C75.5913 35.9801 75.0535 34.6887 75.0535 33.3167C75.0535 32.5052 75.1694 31.2879 75.5172 30.1575C76.9309 29.9965 78.9467 29.7195 80.5794 28.8757C82.2442 28.0352 83.5355 26.6762 83.5452 24.4122C83.5452 22.9759 82.7852 21.4365 80.5601 21.4365C75.8908 21.4236 71.6852 28.0159 71.6787 33.1622C71.6723 36.4567 73.4144 38.3245 75.9938 38.3245C77.8841 38.3245 79.7228 37.3359 81.5648 36.067L80.6245 34.2539ZM79.9063 23.3849C80.5504 23.3849 80.8853 23.913 80.8853 24.6119V24.6441C80.8853 27.6906 77.5492 28.2445 75.9391 28.4217C77.2626 24.76 78.9467 23.3849 79.9063 23.3849ZM46.8252 35.4455C46.8124 36.1411 46.9669 37.2393 47.4403 38.0218H49.4529L51.7199 27.2526C52.1708 25.4782 52.2738 24.7439 52.0967 23.9646C51.6266 21.8423 49.1728 21.4526 47.8364 21.4526C45.7658 21.4526 43.824 22.2609 42.4103 22.9823L42.6905 25.0176C43.6469 24.4959 45.0058 23.8261 46.4775 23.8261C48.2196 23.8261 49.0536 24.6924 48.5319 26.7792L48.4257 27.2076C43.2218 29.0658 39.7698 30.4441 38.8874 33.9608C38.3497 36.1379 39.1483 38.3567 41.6729 38.3567C43.3893 38.3567 45.3729 37.4872 46.8252 35.4487V35.4455ZM42.2719 33.5583L42.288 33.5261C42.7871 31.5036 44.307 30.6245 47.9459 29.1205L47.7333 29.9836C47.3083 31.684 46.9218 32.9754 46.1876 34.138C45.5243 35.2039 44.5872 35.9479 43.6083 35.9479C42.6905 35.9479 41.8693 35.1782 42.2719 33.5583Z" fill="#2B374C"/>
</g>
<defs>
<clipPath id="clip0_844_40601">
<rect width="137.287" height="52.0956" fill="white" transform="translate(0.148438 0.0955811)"/>
</clipPath>
</defs>
</svg>
