<svg width="138" height="53" viewBox="0 0 138 53" fill="none" xmlns="http://www.w3.org/2000/svg">
<path fill-rule="evenodd" clip-rule="evenodd" d="M32.9862 0.781167H15.1733C15.0866 0.781167 15 0.868099 15 0.954416C15 1.04073 15.0866 1.12767 15.1733 1.2146C15.346 1.30154 15.4326 1.2146 15.6059 1.30154C15.7786 1.38847 15.8652 1.47478 16.0379 1.56172C16.2112 1.73497 16.2972 1.8219 16.4705 2.08209C16.6432 2.25595 16.7299 2.4292 16.7299 2.68939C16.8165 2.86325 16.8165 2.94957 16.9025 3.21037V23.5102H26.9332C27.1059 23.5102 27.1925 23.4233 27.1925 23.2501C27.1059 23.0768 27.0193 23.0768 26.8466 22.9899C26.6739 22.9029 26.5012 22.9029 26.2419 22.7297L25.8093 22.2963C25.6366 22.123 25.55 22.0361 25.4639 21.8628C25.3773 21.6883 25.2906 21.5151 25.2906 21.3412C25.204 21.081 25.204 20.9078 25.204 20.6476V12.7527H27.7118C28.1444 12.8396 28.4038 12.8396 28.7491 12.8396C29.0084 12.9266 29.1817 12.9266 29.3544 13.0129C29.6998 13.0998 29.9597 13.0998 30.219 13.2731C30.565 13.36 30.6516 13.4463 31.0836 13.5332C31.4296 13.7077 31.4296 13.7947 31.6889 13.9679C31.9483 14.0549 32.1216 14.1412 32.2942 14.4014C32.5536 14.4883 32.6402 14.6615 32.8129 14.8348C32.9862 15.008 33.0722 15.095 33.1589 15.2682C33.3321 15.5284 33.4182 15.6147 33.5048 15.8749C33.5915 16.0494 33.5915 16.2226 33.6775 16.3965C33.6775 16.4834 33.7641 16.5698 33.9368 16.5698C34.0235 16.5698 34.1961 16.4828 34.1095 16.3965C33.3315 12.839 33.4182 13.3594 32.4669 9.02196C32.4639 8.97685 32.4447 8.93436 32.4128 8.90239C32.3809 8.87042 32.3386 8.85113 32.2936 8.84809H32.0343C31.861 8.93503 31.9476 9.28214 31.9476 9.62926C31.861 9.88944 31.861 10.0633 31.6883 10.3235C31.5156 10.5837 31.429 10.6706 31.2563 10.7575C30.9964 10.9308 30.9103 11.0177 30.651 11.1047C30.4783 11.1916 30.3917 11.1916 30.2184 11.1916H25.2034V2.25595H27.8839C28.3165 2.25595 28.5758 2.34289 29.0078 2.4292C29.4404 2.51614 29.6131 2.51614 30.0457 2.68939C30.3917 2.77632 30.5644 2.86326 30.9103 3.03651C31.2563 3.21037 31.5156 3.29669 31.8616 3.47055C32.0349 3.6438 32.2076 3.73074 32.4669 3.99092C32.6396 4.16479 32.7262 4.25111 32.8989 4.51129C33.1582 4.68454 33.2449 4.85841 33.4182 5.20552C33.5048 5.46571 33.5909 5.72589 33.6775 5.89914C33.6775 5.98607 33.8508 5.98607 33.9368 5.98607C33.9368 5.98607 34.1095 5.98607 34.1095 5.89914C33.5915 3.38362 33.5915 3.2973 32.9862 0.781167ZM44.6588 20.6482V12.7533H47.1667C47.5993 12.8402 47.772 12.8402 48.204 12.8402C48.4633 12.9272 48.5493 12.9272 48.8093 13.0135C49.1552 13.1004 49.3279 13.1004 49.6739 13.2737C50.0199 13.3606 50.1065 13.4469 50.4519 13.5339C50.7978 13.7083 50.8845 13.7953 51.1438 13.9685C51.4031 14.0555 51.4898 14.1418 51.7491 14.402C51.9224 14.4889 52.0084 14.6622 52.1817 14.8354L52.6143 15.2688C52.701 15.529 52.7876 15.6153 52.8737 15.8755C52.9597 16.05 53.0463 16.2233 53.0463 16.3971C53.0463 16.4841 53.133 16.5704 53.3917 16.5704C53.4783 16.5704 53.565 16.4834 53.565 16.3971C52.787 12.8396 52.8736 13.36 51.9224 9.02258C51.8357 8.93565 51.8357 8.84871 51.6631 8.84871H51.4904C51.3171 8.93564 51.4037 9.28276 51.3171 9.62988C51.3171 9.89007 51.2304 10.0639 51.1444 10.3241C50.9717 10.5843 50.8851 10.6712 50.6258 10.7582C50.4525 10.9314 50.2798 11.0183 50.1071 11.1053C49.9338 11.1922 49.7611 11.1922 49.5885 11.1922H44.5728V2.25595H47.34C47.7726 2.25595 48.0319 2.34289 48.4639 2.4292C48.8099 2.51614 49.0692 2.51614 49.4152 2.68939C49.7611 2.77632 49.9338 2.86326 50.2798 3.03651C50.7124 3.21037 50.8851 3.29669 51.2311 3.47055C51.4904 3.6438 51.6637 3.73074 51.8364 3.99092C52.0957 4.16479 52.1823 4.25111 52.355 4.51129C52.5277 4.68454 52.701 4.85841 52.8743 5.20552C52.9603 5.46571 53.0469 5.72589 53.1336 5.89914C53.1336 5.98607 53.2202 5.98607 53.3063 5.98607C53.3923 5.98607 53.5656 5.98607 53.5656 5.89914C53.0469 3.38301 53.0469 3.29669 52.441 0.78055H34.6288C34.5421 0.78055 34.4561 0.867483 34.4561 0.9538C34.4561 1.04012 34.5427 1.12705 34.6288 1.21399C34.7154 1.30092 34.8881 1.21399 35.0614 1.30092C35.2347 1.38785 35.3207 1.47417 35.4074 1.5611C35.6667 1.73435 35.7527 1.82129 35.926 2.08147C36.0987 2.25534 36.0987 2.42859 36.1853 2.68877C36.272 2.86264 36.272 2.94895 36.3586 3.20975V23.5096H52.4416L53.5662 18.3917L53.4796 18.2184H53.3063C53.1336 18.2184 53.1336 18.3917 53.0469 18.5649C52.8743 18.9983 52.8743 19.0853 52.701 19.3455C52.4417 19.6932 52.355 19.7801 52.1823 20.0403C51.923 20.2136 51.7497 20.3868 51.491 20.5607C51.0584 20.8209 50.8857 20.9941 50.4531 21.1674C50.0211 21.4275 49.7618 21.5139 49.3291 21.602C48.8105 21.774 48.5506 21.774 48.0325 21.8622C47.7732 21.9491 47.5999 21.9491 47.3406 21.9491C46.2166 22.0361 44.6601 22.0361 44.6601 22.0361C44.6588 21.5151 44.6588 20.6482 44.6588 20.6482ZM58.9266 7.80798V20.5613C58.9266 20.8215 58.9266 21.0817 59.0132 21.3418C59.0999 21.6883 59.1859 21.8634 59.4453 22.2099C59.5319 22.3832 59.7046 22.5564 59.8779 22.6434C60.1372 22.9036 60.3099 22.9036 60.6565 22.9899C60.8291 23.0768 60.9158 23.1631 60.9158 23.2501C60.9158 23.4233 60.8291 23.5102 60.6565 23.5102H55.8141V3.55687C55.7274 3.21037 55.7274 2.94957 55.5548 2.68939C55.4681 2.34289 55.3815 2.08209 55.1222 1.8219C54.8628 1.56172 54.7768 1.4754 54.5169 1.38847C54.3442 1.30153 54.1715 1.21522 53.9982 1.21522C53.8249 1.21522 53.8249 1.21522 53.8249 0.955032C53.8249 0.868099 53.9116 0.781783 54.0842 0.781783H63.2503C63.5957 0.781783 63.8556 0.781782 64.1149 0.955032C64.3743 1.04197 64.5476 1.04197 64.8069 1.21522C65.0662 1.38847 65.1522 1.4754 65.4122 1.64865C65.5848 1.90883 65.6715 2.0827 65.8448 2.34289C67.4874 5.20614 68.1793 6.50706 69.6498 9.28338C69.7365 9.45663 69.9092 9.54356 70.0819 9.71681C70.2545 9.80375 70.4272 9.89068 70.6865 9.89068C70.9459 9.89068 71.1185 9.97761 71.3791 9.80375C71.6384 9.71681 71.7244 9.62988 71.8977 9.36969C72.0704 9.02258 72.1571 8.84871 72.1571 8.50221C72.5891 5.63896 72.7617 4.94534 73.3683 1.04135C73.4549 0.781169 73.5409 0.781167 73.6276 0.781167H82.6198V20.3011C82.6198 20.8215 82.6198 21.0817 82.7924 21.6026C82.9651 21.9491 83.053 22.0361 83.3123 22.4695C83.485 22.6428 83.6577 22.7297 83.917 22.9029C84.0897 22.9899 84.2623 22.9899 84.4356 22.9899C84.5223 23.0768 84.6083 23.1631 84.6083 23.2501C84.6083 23.4233 84.4356 23.5102 84.349 23.5102H74.4049V7.98184L68.0411 24.1188H67.9587L58.9266 7.80798ZM100.172 7.37454L99.7401 1.56172C99.5674 1.47478 99.4808 1.38847 99.2214 1.30154C98.7016 1.04135 98.3562 0.954417 97.7509 0.781167C97.1462 0.520983 96.713 0.434053 96.0217 0.347119C95.3375 0.189528 94.6445 0.0736078 93.9464 0H92.2172C91.5259 0.0869334 91.0939 0.0869316 90.4013 0.260182C89.8827 0.433432 89.5373 0.520367 89.0187 0.78055C88.4988 0.953801 88.2395 1.12705 87.8941 1.38785C87.3755 1.73435 87.0301 1.90822 86.5969 2.42859C86.1649 2.86264 85.9922 3.1222 85.6462 3.64319C85.3869 4.07724 85.3009 4.33742 85.1276 4.85779C84.9537 5.37816 84.867 5.63834 84.867 6.24564C84.7804 6.76662 84.7804 7.11313 84.867 7.72043C84.867 8.24141 84.9537 8.58791 85.1276 9.19583C85.3003 9.62926 85.3869 9.88945 85.5596 10.3235C85.8189 10.7575 85.9916 11.0171 86.3376 11.4512C86.5969 11.8852 86.7696 12.0585 87.1168 12.4925C87.5488 12.926 87.8947 13.1861 88.4128 13.5332C88.8448 13.881 89.1053 14.0549 89.624 14.315C90.1426 14.5752 90.4019 14.7485 91.0079 15.0087C91.5265 15.3552 91.9585 15.529 92.4771 15.8755C92.8225 16.1369 93.0831 16.2233 93.429 16.5704C93.6884 16.8306 93.7744 17.0038 93.9477 17.3509C94.0343 17.6111 94.0343 17.7844 94.0343 18.0458C94.0343 18.3923 94.0343 18.6525 93.8616 18.9126C93.689 19.1728 93.5163 19.3461 93.257 19.5193C92.9977 19.6938 92.7371 19.7807 92.3917 19.8671C91.9597 20.0403 91.6138 19.954 91.0957 19.8671C90.6625 19.8671 90.4898 19.6938 90.0578 19.5193C89.5392 19.3461 89.2798 19.1728 88.8466 18.8257C88.5013 18.5655 88.0686 18.1321 87.5506 17.6987C87.032 17.0907 86.858 16.7436 86.3394 16.2233C86.1667 15.9631 85.994 15.6153 85.8207 15.5284C85.7341 15.5284 85.5614 15.6153 85.5614 15.7029V21.602C85.8208 21.8622 85.9934 22.0355 86.3394 22.2956C86.858 22.6421 87.2046 22.816 87.8099 23.0762C88.4152 23.3364 88.7606 23.4227 89.4531 23.6829C90.0578 23.8574 90.4038 23.9443 91.0097 24.0306C91.3397 24.0966 91.5689 24.1138 91.8141 24.1175C91.819 24.1175 91.8239 24.1163 91.8295 24.1175H91.9038C91.9081 24.1175 91.9137 24.1163 91.9192 24.1175H93.9458C94.4645 24.0306 94.8111 24.0306 95.3297 23.8574C95.7617 23.7692 95.9344 23.7692 96.367 23.5972C96.9729 23.4227 97.2322 23.2494 97.7509 22.9023C98.2695 22.5552 98.6149 22.382 99.0481 21.9485C99.4801 21.602 99.8261 21.1667 100.171 20.5601C100.691 19.7795 100.951 19.3448 101.123 18.478C101.21 17.9576 101.296 17.6974 101.296 17.2628C101.383 16.4822 101.469 16.0488 101.383 15.3539C101.296 14.5734 101.123 14.1399 100.864 13.4451C100.603 12.6645 100.344 12.2311 99.9121 11.5369C99.3935 10.8432 99.1342 10.4961 98.4416 9.97576C97.923 9.45478 97.5776 9.28153 96.8863 8.84748C96.1937 8.41404 95.7617 8.32711 95.0704 7.97999C94.2912 7.54594 93.8592 7.45962 93.2545 7.02557C92.8213 6.76539 92.562 6.59152 92.3026 6.24441C92.0433 5.98422 91.8706 5.81097 91.784 5.46386V4.77024C91.8706 4.42312 92.0433 4.16294 92.3026 3.98907C92.648 3.64196 92.9952 3.64195 93.4272 3.55502C93.8592 3.55502 94.1185 3.55502 94.5505 3.64195C95.0704 3.72889 95.3297 3.81521 95.8477 4.07601C96.3664 4.24926 96.6257 4.42251 97.059 4.68269C97.491 5.02981 97.7503 5.20367 98.0963 5.55017C98.7009 6.07116 98.9615 6.33134 99.4801 6.93802C99.6528 7.11128 99.6528 7.37208 99.9121 7.37208C99.9994 7.37454 100.172 7.46086 100.172 7.37454ZM108.906 0.173865L120.666 21.7753L120.839 21.9498C121.011 22.123 121.098 22.2099 121.357 22.3832C121.617 22.5564 121.703 22.6434 122.049 22.8166C122.309 22.9036 122.482 22.9036 122.655 22.9899C122.827 22.9899 122.914 22.9899 123 23.1631C123 23.3364 122.913 23.5096 122.827 23.5096H113.489C113.229 23.5096 113.143 23.4227 112.884 23.4227C112.539 23.3358 112.364 23.2494 112.019 23.0762C111.673 22.816 111.5 22.6428 111.241 22.3826C110.981 22.0361 110.895 21.8622 110.636 21.5145C108.907 18.3923 108.82 18.1321 107.004 14.6615C106.832 14.4014 106.659 14.315 106.398 14.1412C106.139 13.9679 105.966 13.9679 105.707 13.881C105.362 13.881 105.188 13.881 104.929 13.9679C104.582 14.0549 104.409 14.0549 104.15 14.3144C103.804 14.4877 103.718 14.6609 103.545 14.9211C103.372 15.1813 103.286 15.5278 103.113 15.7892C103.026 15.8749 102.94 15.9625 102.768 15.8749C102.681 15.8749 102.594 15.7029 102.681 15.6147C104.843 10.0633 104.756 10.2366 108.734 0.173249H108.906V0.173865Z" fill="#862632"/>
<path d="M26.0694 47.6416C26.0694 48.9809 25.5781 50.0422 24.5955 50.8253C23.6202 51.6084 22.321 52 20.698 52C18.7474 52 17.2517 51.7841 16.2109 51.3522V50.2324C17.3609 50.7228 18.8275 50.968 20.6107 50.968C21.9207 50.968 22.9579 50.6679 23.7221 50.0678C24.4936 49.4603 24.8794 48.6662 24.8794 47.6855C24.8794 47.078 24.752 46.5767 24.4972 46.1814C24.2425 45.7789 23.8276 45.413 23.2527 45.0836C22.6777 44.7543 21.8334 44.3993 20.7198 44.0187C19.0895 43.4552 17.9614 42.8477 17.3354 42.1963C16.7168 41.5376 16.4075 40.663 16.4075 39.5725C16.4075 38.3722 16.8733 37.3951 17.8049 36.6413C18.7438 35.8801 19.9483 35.4995 21.4185 35.4995C22.9179 35.4995 24.3262 35.785 25.6436 36.3558L25.2396 37.3219C23.915 36.7657 22.6486 36.4876 21.4404 36.4876C20.2613 36.4876 19.3224 36.762 18.6237 37.311C17.925 37.8599 17.5756 38.6064 17.5756 39.5505C17.5756 40.1434 17.6811 40.6301 17.8922 41.0107C18.1106 41.3912 18.4636 41.7352 18.9512 42.0426C19.4389 42.3427 20.2759 42.705 21.4622 43.1295C22.7068 43.5613 23.6421 43.9821 24.268 44.392C24.8939 44.7945 25.3488 45.2556 25.6327 45.7752C25.9238 46.2876 26.0694 46.9097 26.0694 47.6416Z" fill="#98999B"/>
<path d="M35.481 51.7804L35.2081 49.8921H35.1208C34.5239 50.6606 33.9089 51.2059 33.2757 51.5279C32.6498 51.8426 31.9074 52 31.0486 52C29.884 52 28.9779 51.6999 28.3301 51.0997C27.6824 50.4996 27.3585 49.6689 27.3585 48.6077C27.3585 47.444 27.8388 46.5401 28.7996 45.896C29.7676 45.2519 31.165 44.9116 32.9919 44.875L35.2518 44.8092V44.0187C35.2518 42.8843 35.0225 42.028 34.564 41.4498C34.1054 40.8716 33.3667 40.5825 32.3477 40.5825C31.2487 40.5825 30.1097 40.8899 28.9306 41.5047L28.5266 40.5605C29.8295 39.9458 31.1177 39.6384 32.3914 39.6384C33.6942 39.6384 34.6659 39.9787 35.3064 40.6594C35.9541 41.34 36.278 42.4012 36.278 43.8431V51.7804H35.481ZM31.1141 51.0119C32.3805 51.0119 33.3776 50.6496 34.1054 49.9251C34.8405 49.1932 35.2081 48.1795 35.2081 46.8841V45.7094L33.1338 45.7972C31.4671 45.8777 30.2771 46.1412 29.5638 46.5876C28.8578 47.0268 28.5048 47.7148 28.5048 48.6516C28.5048 49.3981 28.7304 49.9799 29.1817 50.3971C29.6402 50.807 30.2843 51.0119 31.1141 51.0119Z" fill="#98999B"/>
<path d="M40.3183 51.7804H39.2375V34.6981H40.3183V51.7804Z" fill="#98999B"/>
<path d="M44.3477 39.847V47.5757C44.3477 48.776 44.5988 49.6506 45.101 50.1995C45.6032 50.7411 46.382 51.0119 47.4373 51.0119C48.8493 51.0119 49.8865 50.6533 50.5488 49.936C51.2184 49.2188 51.5532 48.0514 51.5532 46.4339V39.847H52.6231V51.7804H51.706L51.5095 50.1336H51.444C50.6725 51.3779 49.3006 52 47.3282 52C44.6279 52 43.2778 50.5472 43.2778 47.6416V39.847H44.3477Z" fill="#98999B"/>
<path d="M60.0478 39.6164C60.9067 39.6164 61.649 39.7738 62.275 40.0885C62.9009 40.4032 63.4613 40.9411 63.9562 41.7023H64.0218C63.9781 40.7801 63.9562 39.8762 63.9562 38.9906V34.6981H65.0262V51.7804H64.3165L64.0436 49.958H63.9562C63.0537 51.3193 61.7582 52 60.0697 52C58.432 52 57.1802 51.4876 56.3141 50.463C55.4479 49.4384 55.0149 47.9453 55.0149 45.9838C55.0149 43.9199 55.4443 42.3427 56.3031 41.2522C57.162 40.1617 58.4102 39.6164 60.0478 39.6164ZM60.0478 40.6045C58.7523 40.6045 57.777 41.0619 57.122 41.9767C56.4742 42.8916 56.1503 44.22 56.1503 45.9619C56.1503 49.3432 57.4568 51.0339 60.0697 51.0339C61.4089 51.0339 62.3914 50.6423 63.0173 49.8592C63.6433 49.0761 63.9562 47.7843 63.9562 45.9838V45.7972C63.9562 43.9528 63.6469 42.6281 63.0283 41.8231C62.4169 41.0107 61.4234 40.6045 60.0478 40.6045Z" fill="#98999B"/>
</svg>
