<svg width="138" height="53" viewBox="0 0 138 53" fill="none" xmlns="http://www.w3.org/2000/svg">
<path d="M133.548 18.791C132.838 18.6413 132.115 18.5591 131.389 18.5453C130.669 18.558 129.951 18.6403 129.246 18.791C128.727 18.9395 128.231 19.1576 127.771 19.4395C127.344 19.1588 126.879 18.9404 126.39 18.791C125.678 18.6406 124.953 18.5583 124.225 18.5453C123.507 18.5586 122.791 18.6409 122.089 18.791C121.025 19.0316 120.083 19.6448 119.433 20.5196C118.782 21.3944 118.467 22.4731 118.542 23.5605V33.1041H122.679V24.3797C122.679 23.5118 122.956 22.5457 124.246 22.5457C125.446 22.5457 125.683 23.3443 125.694 24.4702V33.1028H129.84V24.2758C129.864 23.4457 130.156 22.5437 131.407 22.5437C132.634 22.5437 132.855 23.3777 132.855 24.5568V33.1009H136.992V23.5599C137.047 22.492 136.736 21.4375 136.11 20.5704C135.484 19.7033 134.582 19.0754 133.551 18.7903" fill="#878FA6"/>
<path d="M98.3683 18.6041H98.3542C96.4286 18.6041 94.5819 19.3691 93.2203 20.7307C91.8587 22.0923 91.0938 23.939 91.0938 25.8646C91.0938 27.7902 91.8587 29.637 93.2203 30.9986C94.5819 32.3602 96.4286 33.1251 98.3542 33.1251V33.1322H101.562V29.0663H98.369C97.5198 29.0663 96.7055 28.729 96.105 28.1286C95.5046 27.5281 95.1673 26.7138 95.1673 25.8646C95.1673 25.0155 95.5046 24.2011 96.105 23.6007C96.7055 23.0002 97.5198 22.6629 98.369 22.6629H101.562V18.6041H98.3683Z" fill="#878FA6"/>
<path d="M109.975 18.5977C108.536 18.5988 107.13 19.0264 105.935 19.8264C104.74 20.6264 103.808 21.7629 103.259 23.0922C102.709 24.4215 102.566 25.8838 102.848 27.2944C103.129 28.705 103.823 30.0004 104.84 31.0169C105.858 32.0335 107.154 32.7254 108.565 33.0053C109.976 33.2852 111.438 33.1404 112.767 32.5894C114.096 32.0383 115.231 31.1057 116.03 29.9094C116.828 28.7131 117.254 27.3068 117.254 25.8684C117.254 24.913 117.065 23.9669 116.699 23.0843C116.333 22.2017 115.797 21.3999 115.121 20.7246C114.445 20.0494 113.642 19.514 112.759 19.1491C111.876 18.7841 110.93 18.5967 109.975 18.5977ZM109.975 29.0663C109.341 29.0651 108.723 28.8763 108.197 28.5236C107.671 28.171 107.262 27.6703 107.02 27.0849C106.779 26.4996 106.717 25.8558 106.841 25.235C106.966 24.6142 107.271 24.0443 107.72 23.5972C108.168 23.1502 108.739 22.8461 109.36 22.7235C109.981 22.6008 110.625 22.6651 111.21 22.9082C111.794 23.1513 112.294 23.5623 112.645 24.0892C112.996 24.6161 113.183 25.2353 113.182 25.8684C113.182 26.2891 113.098 26.7055 112.937 27.0939C112.775 27.4823 112.539 27.8351 112.241 28.1321C111.943 28.4291 111.59 28.6645 111.201 28.8248C110.812 28.9851 110.395 29.0671 109.975 29.0663ZM117.236 26.0711C117.242 25.9999 117.242 25.9281 117.242 25.8684L117.236 26.0711Z" fill="#878FA6"/>
<path d="M72.6554 29.0594C72.0237 29.06 71.4059 28.8733 70.8803 28.5227C70.3548 28.1722 69.9449 27.6736 69.7028 27.0901C69.4606 26.5066 69.397 25.8644 69.5199 25.2448C69.6428 24.6251 69.9467 24.0558 70.3933 23.6089C70.8398 23.162 71.4089 22.8575 72.0284 22.7341C72.648 22.6107 73.2903 22.6739 73.874 22.9156C74.4577 23.1573 74.9566 23.5667 75.3075 24.092C75.6585 24.6173 75.8457 25.2349 75.8456 25.8667C75.8462 26.2859 75.7641 26.7011 75.604 27.0886C75.4439 27.476 75.209 27.8281 74.9127 28.1247C74.6164 28.4212 74.2645 28.6564 73.8772 28.8168C73.4898 28.9772 73.0747 29.0596 72.6554 29.0594ZM79.8935 25.8667C79.8962 24.2891 79.3848 22.7536 78.4367 21.4926C77.4886 20.2317 76.1555 19.3141 74.6392 18.8787C73.1228 18.4433 71.506 18.5138 70.0333 19.0796C68.5607 19.6454 67.3125 20.6757 66.4779 22.0144C65.6432 23.3531 65.2675 24.9273 65.4076 26.4987C65.5477 28.07 66.196 29.5529 67.2544 30.7228C68.3128 31.8927 69.7235 32.6859 71.273 32.9822C72.8225 33.2785 74.4264 33.0619 75.8418 32.365V33.1111H79.8935V26.0617C79.8975 25.9976 79.8975 25.9333 79.8935 25.8692" fill="#0E3252"/>
<path d="M31.1287 29.0593C30.3178 29.0578 29.5377 28.7484 28.9462 28.1937C28.3547 27.639 27.9959 26.8803 27.9424 26.0712V25.6658C27.9816 25.0441 28.2017 24.4474 28.5758 23.9493C28.9499 23.4512 29.4614 23.0734 30.0475 22.8625C30.6337 22.6515 31.2687 22.6166 31.8744 22.7621C32.4801 22.9075 33.03 23.227 33.4564 23.6811C33.8827 24.1352 34.167 24.7042 34.274 25.3178C34.3811 25.9314 34.3063 26.563 34.0589 27.1347C33.8115 27.7064 33.4022 28.1932 32.8816 28.5351C32.3609 28.8771 31.7516 29.0593 31.1287 29.0593ZM31.1287 18.6234C30.0253 18.6249 28.9364 18.875 27.943 19.3553V13.0956H23.8945V26.2463C23.9012 26.304 23.9048 26.3621 23.9054 26.4202C24.014 27.8245 24.5297 29.1668 25.3894 30.2825C26.2491 31.3983 27.4155 32.2392 28.7458 32.7022C30.0761 33.1651 31.5125 33.2302 32.8792 32.8893C34.2459 32.5484 35.4835 31.8164 36.4406 30.7829C37.3976 29.7494 38.0324 28.4592 38.2674 27.0704C38.5024 25.6816 38.3274 24.2544 37.7636 22.9635C37.1999 21.6727 36.272 20.5743 35.0936 19.8027C33.9151 19.0312 32.5373 18.62 31.1287 18.6195" fill="#0E3252"/>
<path d="M43.7637 24.4707C44.0244 23.932 44.4318 23.4777 44.939 23.16C45.4462 22.8422 46.0327 22.674 46.6312 22.6745C47.0876 22.6729 47.5386 22.7722 47.9521 22.9651L44.5137 24.9037L43.4584 25.4907C43.5026 25.1367 43.6058 24.7926 43.7637 24.4727V24.4707ZM46.6312 29.0607C45.9507 29.0657 45.2878 28.844 44.7472 28.4307L47.7282 26.7564L49.8099 25.5856L53.4812 23.513C53.0231 22.181 52.1868 21.0115 51.0744 20.1474C49.9621 19.2834 48.6219 18.7623 47.2181 18.6479C45.8142 18.5336 44.4075 18.8309 43.17 19.5036C41.9324 20.1762 40.9178 21.195 40.2502 22.4353C39.6866 23.4915 39.3914 24.6701 39.3906 25.8673C39.3901 26.4727 39.4633 27.0758 39.6087 27.6635C39.9604 29.0405 40.7094 30.2837 41.7624 31.2383C42.8154 32.1928 44.1259 32.8165 45.5307 33.0318C46.9356 33.2471 48.3727 33.0443 49.6632 32.4489C50.9537 31.8534 52.0405 30.8915 52.7884 29.6829L49.2755 27.6532C48.9855 28.0886 48.5921 28.4453 48.1306 28.6916C47.6691 28.9379 47.1537 29.066 46.6306 29.0645" fill="#0E3252"/>
<path d="M61.155 18.6234H61.1344C59.2133 18.6234 57.3708 19.3866 56.0123 20.7451C54.6538 22.1036 53.8906 23.9461 53.8906 25.8672C53.8906 27.7884 54.6538 29.6309 56.0123 30.9894C57.3708 32.3479 59.2133 33.111 61.1344 33.111H64.3484V29.0593H61.155C60.7318 29.0653 60.3117 28.9872 59.9191 28.8294C59.5264 28.6716 59.169 28.4374 58.8677 28.1403C58.5663 27.8432 58.3271 27.4892 58.1637 27.0988C58.0004 26.7084 57.9163 26.2894 57.9163 25.8663C57.9163 25.4431 58.0004 25.0242 58.1637 24.6338C58.3271 24.2434 58.5663 23.8894 58.8677 23.5923C59.169 23.2952 59.5264 23.0609 59.9191 22.9031C60.3117 22.7454 60.7318 22.6672 61.155 22.6732H64.3484V18.6241L61.155 18.6234Z" fill="#0E3252"/>
<path d="M0.000646041 19.894V33.0338H4.70091V26.273H10.0311V21.8922H4.70091V20.1063C4.70091 19.1376 5.11275 18.6539 6.35405 18.6539H10.0311V14.1134H5.59131C2.16699 14.1134 0 16.5986 0 19.894" fill="#0E3252"/>
<path d="M18.4379 27.1252C18.4379 28.2959 18.2255 29.1311 16.9926 29.1311C15.7 29.1311 15.4337 28.1689 15.4337 27.3041V18.6041H11.2999V28.1124C11.2249 29.1988 11.5407 30.2762 12.1905 31.15C12.8402 32.0238 13.781 32.6365 14.8429 32.8775V38.7581H19.1269V32.8775C20.1555 32.5918 21.056 31.9641 21.6799 31.0978C22.3038 30.2316 22.6139 29.1786 22.5589 28.1124V18.6041H18.4379V27.1252Z" fill="#0E3252"/>
<path d="M85.6562 29.0594C85.0243 29.0605 84.4063 28.8742 83.8804 28.5239C83.3545 28.1737 82.9443 27.6754 82.7017 27.0919C82.4592 26.5085 82.3951 25.8662 82.5177 25.2463C82.6404 24.6264 82.9441 24.0569 83.3905 23.6097C83.837 23.1626 84.406 22.8579 85.0257 22.7343C85.6453 22.6107 86.2877 22.6737 86.8716 22.9153C87.4554 23.157 87.9544 23.5663 88.3055 24.0917C88.6566 24.6171 88.8439 25.2348 88.8438 25.8666C88.8436 26.7124 88.5079 27.5237 87.9103 28.1222C87.3127 28.7208 86.502 29.0578 85.6562 29.0594Z" fill="#E10023"/>
</svg>
