<svg width="138" height="53" viewBox="0 0 138 53" fill="none" xmlns="http://www.w3.org/2000/svg">
<g clip-path="url(#clip0_844_40518)">
<path d="M118.582 30.3657C122.83 30.19 126.234 26.6866 126.237 22.4005V17.4877C126.237 15.3501 124.518 13.6111 122.404 13.6111C120.291 13.6111 118.571 15.3501 118.571 17.4877V22.6723H113.438C111.346 22.6723 109.64 24.3932 109.637 26.509C109.635 27.538 110.029 28.5035 110.747 29.2317C111.466 29.96 112.42 30.3603 113.438 30.3603H118.584V30.3657H118.582Z" fill="#E6007E"/>
<path d="M134.074 23.7679C133.356 23.0396 132.401 22.6393 131.384 22.6393H128.283C128.154 27.9597 123.882 32.2675 118.582 32.4414V35.5119C118.582 37.6495 120.302 39.3885 122.415 39.3885C124.529 39.3885 126.248 37.6495 126.248 35.5119V30.3273H131.382C133.474 30.3273 135.179 28.6064 135.183 26.4906C135.186 25.4616 134.792 24.4943 134.074 23.7679Z" fill="#E6007E"/>
<path d="M31.8004 26.0181C31.8522 26.9305 32.167 27.8076 32.7062 28.541C33.2453 29.2745 33.985 29.8321 34.834 30.1452C35.683 30.4582 36.604 30.5129 37.4834 30.3025C38.3628 30.0921 39.1619 29.6258 39.7822 28.9613C40.4025 28.2967 40.8167 27.4629 40.9737 26.5629C41.1308 25.6629 41.0237 24.7361 40.6658 23.8969C40.3078 23.0578 39.7147 22.343 38.9596 21.8409C38.2045 21.3389 37.3206 21.0715 36.4169 21.0718C35.1568 21.1103 33.9631 21.6526 33.0977 22.5798C32.2323 23.507 31.7658 24.7435 31.8004 26.0181ZM44.1828 25.3003C44.1828 28.1437 43.5241 30.9441 44.7415 33.0802C44.9325 33.409 45.0448 33.7697 45.4257 33.7697H44.7415C43.125 33.7697 41.833 33.2176 41.3368 32.3459C39.9544 33.6405 38.1409 34.3617 36.2568 34.366C31.9556 34.366 28.4648 30.6276 28.4648 26.0187C28.4648 21.4098 31.9556 17.6689 36.2568 17.6689C40.7497 17.6689 44.1828 21.1264 44.1828 25.3003Z" fill="#E6007E"/>
<path d="M59.6528 17.6689C61.2452 17.6703 62.8029 18.1397 64.1362 19.0202C65.4695 19.9007 66.521 21.1542 67.1627 22.6281C67.1806 22.7791 67.1487 22.9318 67.0719 23.0624C66.9951 23.1931 66.8777 23.2945 66.7381 23.3508H63.5039C63.1129 22.6655 62.5521 22.0951 61.8769 21.6957C61.2016 21.2963 60.435 21.0817 59.6528 21.073C58.4137 21.1591 57.2531 21.7176 56.4055 22.6358C55.5579 23.5539 55.0865 24.7632 55.0865 26.0193C55.0865 27.2754 55.5579 28.4847 56.4055 29.4028C57.2531 30.321 58.4137 30.8795 59.6528 30.9656C60.421 30.9572 61.1742 30.7498 61.8405 30.3631C62.5069 29.9765 63.0641 29.4236 63.459 28.7571H66.7345C66.8579 28.8012 66.9663 28.88 67.047 28.9842C67.1277 29.0884 67.1773 29.2137 67.19 29.3454C66.5921 30.7155 65.6395 31.8969 64.4328 32.7649C63.2261 33.633 61.8101 34.1554 60.3342 34.2771C58.8583 34.3988 57.3773 34.1152 56.0475 33.4564C54.7178 32.7975 53.5885 31.7878 52.779 30.5338C51.9696 29.2797 51.5099 27.8279 51.4485 26.3316C51.3871 24.8353 51.7263 23.35 52.4303 22.0324C53.1342 20.7149 54.1769 19.614 55.4481 18.846C56.7193 18.078 58.172 17.6713 59.6528 17.6689Z" fill="#E6007E"/>
<path fill-rule="evenodd" clip-rule="evenodd" d="M93.7763 34.3316C92.6986 34.3334 91.6313 34.1195 90.6357 33.7022C89.6402 33.2849 88.7361 32.6726 87.9756 31.9004C87.2151 31.1281 86.6132 30.2114 86.2046 29.2029C85.796 28.1943 85.5888 27.114 85.5949 26.0241C85.5765 24.9283 85.7789 23.8402 86.1899 22.8261C86.6009 21.812 87.2118 20.8933 87.9854 20.1258C88.7455 19.3532 89.6491 18.7402 90.6441 18.3219C91.6392 17.9036 92.7062 17.6882 93.7839 17.6882C94.8615 17.6882 95.9285 17.9036 96.9236 18.3219C97.9187 18.7402 98.8222 19.3532 99.5824 20.1258C101.114 21.6956 101.972 23.8122 101.972 26.0174C101.972 28.2226 101.114 30.3392 99.5824 31.909C98.8296 32.6926 97.926 33.3118 96.9274 33.7284C95.9288 34.1451 94.8564 34.3503 93.7763 34.3316ZM93.7763 30.9085C94.3768 30.9209 94.9729 30.8023 95.524 30.5608C96.0752 30.3192 96.5683 29.9603 96.9699 29.5086C97.7974 28.5383 98.2526 27.2996 98.2526 26.0183C98.2526 24.737 97.7974 23.4983 96.9699 22.5281C96.5644 22.0828 96.0721 21.7274 95.524 21.4843C94.9759 21.2412 94.3839 21.1157 93.7854 21.1157C93.1869 21.1157 92.5949 21.2412 92.0468 21.4843C91.4986 21.7274 91.0063 22.0828 90.6009 22.5281C89.7721 23.4977 89.3161 24.7366 89.3161 26.0183C89.3161 27.3 89.7721 28.5389 90.6009 29.5086C90.9998 29.9588 91.4899 30.3168 92.0378 30.5583C92.5857 30.7997 93.1787 30.9196 93.7763 30.9085Z" fill="#E6007E"/>
<path d="M14.3339 20.1614C18.1116 15.7446 26.7728 17.3604 26.9257 23.8802C26.9257 26.0058 26.1923 30.4595 26.9257 33.082C27.0276 33.4501 27.2289 33.7716 27.6086 33.7716H26.9257C24.8421 33.7716 23.7927 32.5925 23.4197 31.4061C22.861 29.6522 23.3063 27.337 23.3063 25.0366C23.3063 19.6701 16.1439 19.7057 16.1439 25.0366V33.7722H13.2063C13.0256 33.7719 12.8524 33.6991 12.7246 33.5699C12.5968 33.4406 12.5249 33.2654 12.5245 33.0827V25.0347C12.5245 19.7038 5.36219 19.6682 5.36219 25.0347V33.7703H2.42698C2.24578 33.7707 2.07189 33.6982 1.94348 33.5689C1.81507 33.4396 1.74267 33.2641 1.74219 33.0808V18.5419C3.31198 19.4793 3.73355 17.7058 5.31062 18.8223C6.70625 17.8599 8.40858 17.4632 10.0799 17.7109C11.7512 17.9586 13.2694 18.8327 14.3333 20.1596L14.3339 20.1614Z" fill="#E6007E"/>
<path d="M44.7069 18.3321C44.6046 18.1327 44.4528 17.9636 44.2665 17.8413C44.1658 17.7763 44.2872 17.7456 44.2872 17.7456L44.6183 17.6978C46.6807 17.407 48.6562 19.1811 49.1858 20.8834C50.2582 24.3562 49.1943 29.6288 50.7665 33.0372C50.9279 33.385 51.1663 33.6776 51.5399 33.6243L50.8605 33.7212C48.7982 34.0132 47.5541 33.0771 46.9348 31.936C45.0896 28.5277 47.3109 22.8453 44.7069 18.3321Z" fill="#E6007E"/>
<path d="M71.6386 26.0181C71.6904 26.9304 72.0053 27.8074 72.5443 28.5408C73.0833 29.2742 73.8229 29.8318 74.6717 30.145C75.5205 30.4581 76.4415 30.5129 77.3208 30.3027C78.2001 30.0925 78.9993 29.6265 79.6197 28.9621C80.2401 28.2978 80.6545 27.4642 80.8118 26.5644C80.9691 25.6645 80.8623 24.7378 80.5048 23.8986C80.1472 23.0594 79.5545 22.3445 78.7997 21.8421C78.0449 21.3398 77.1612 21.072 76.2577 21.0718C74.9969 21.109 73.8022 21.6508 72.9362 22.5783C72.0701 23.5057 71.6034 24.7429 71.6386 26.0181ZM84.0242 25.2997C84.0242 28.1431 83.3648 30.9478 84.5834 33.0795C84.7708 33.4096 84.8867 33.7691 85.2634 33.7691H84.5834C82.9627 33.7691 81.6719 33.217 81.1775 32.3452C79.7951 33.6398 77.9816 34.361 76.0975 34.3654C71.7945 34.3654 68.3086 30.627 68.3086 26.0181C68.3086 21.4092 71.7945 17.6689 76.0975 17.6689C80.588 17.6689 84.0242 21.1258 84.0242 25.2997Z" fill="#E6007E"/>
<path d="M104.858 32.6053C104.867 32.8677 104.822 33.1291 104.724 33.3724C104.627 33.6156 104.479 33.8351 104.291 34.0163C103.941 34.3643 103.468 34.5581 102.977 34.5555C102.646 34.554 102.322 34.4639 102.037 34.2943C101.751 34.1247 101.516 33.8817 101.354 33.59C101.191 33.2984 101.109 32.9685 101.113 32.6339C101.118 32.2994 101.211 31.9721 101.381 31.6854C101.552 31.3987 101.795 31.1628 102.085 31.0018C102.375 30.8408 102.702 30.7603 103.032 30.7687C103.363 30.777 103.686 30.8738 103.967 31.0492C104.249 31.2247 104.48 31.4724 104.636 31.7674C104.774 32.0252 104.85 32.3123 104.858 32.6053ZM104.627 32.6943C104.636 32.4644 104.596 32.2353 104.511 32.022C104.426 31.8087 104.297 31.6161 104.133 31.457C103.824 31.1535 103.411 30.9839 102.98 30.9846C102.654 30.9843 102.335 31.082 102.063 31.2653C101.792 31.4486 101.581 31.7092 101.456 32.0141C101.331 32.3191 101.298 32.6546 101.362 32.9783C101.426 33.3019 101.583 33.5991 101.814 33.8323C101.966 33.9892 102.147 34.1134 102.348 34.1972C102.548 34.2811 102.763 34.3228 102.98 34.32C103.201 34.3259 103.421 34.2839 103.625 34.1965C103.829 34.1092 104.012 33.9787 104.161 33.8139C104.456 33.5171 104.623 33.1152 104.626 32.6949L104.627 32.6943ZM102.215 31.6735H103.038C103.21 31.6644 103.38 31.7113 103.523 31.8072C103.585 31.8519 103.634 31.9116 103.666 31.9809C103.699 32.0501 103.713 32.1265 103.708 32.2029C103.708 32.334 103.663 32.461 103.582 32.563C103.462 32.6885 103.299 32.7627 103.126 32.7704C103.248 32.8125 103.356 32.8881 103.438 32.9888C103.573 33.2057 103.687 33.4349 103.779 33.6734H103.481C103.387 33.4208 103.257 33.183 103.097 32.9673C103.025 32.9068 102.942 32.8616 102.853 32.8342C102.764 32.8068 102.67 32.7978 102.577 32.8078H102.467V33.6728H102.214L102.215 31.6735ZM102.467 32.598H102.79C102.967 32.6187 103.145 32.5826 103.3 32.4949C103.34 32.4605 103.372 32.417 103.392 32.368C103.412 32.319 103.421 32.2658 103.418 32.2127C103.422 32.1612 103.413 32.1094 103.39 32.063C103.368 32.0165 103.333 31.9771 103.29 31.9489C103.143 31.8912 102.985 31.8669 102.827 31.8778H102.468L102.467 32.598Z" fill="#E6007E"/>
</g>
<defs>
<clipPath id="clip0_844_40518">
<rect width="137.287" height="52.0956" fill="white" transform="translate(0.148438)"/>
</clipPath>
</defs>
</svg>
