<svg width="138" height="53" viewBox="0 0 138 53" fill="none" xmlns="http://www.w3.org/2000/svg">
<g clip-path="url(#clip0_844_40644)">
<path d="M2.45429 18.5038C1.70353 18.5038 1.13131 18.3044 0.737625 17.9057C0.343943 17.5069 0.147548 16.9261 0.148441 16.1632V7.55575C0.148441 6.01308 0.907238 5.24129 2.42483 5.24041C3.80585 5.24041 4.55706 5.89922 4.67846 7.21683C5.06434 6.59134 5.61174 6.07966 6.2639 5.73484C6.98748 5.35972 7.79518 5.17313 8.61127 5.19256C9.40527 5.1724 10.1894 5.37066 10.8769 5.76541C11.5143 6.14732 11.9991 6.73656 12.3312 7.53315C12.7523 6.80471 13.3688 6.20655 14.1121 5.80529C14.8761 5.39499 15.7328 5.18458 16.6014 5.19389C18.1038 5.19389 19.2175 5.64048 19.9424 6.53365C20.6672 7.42683 21.0297 8.81798 21.0297 10.7071V16.1685C21.0297 16.9314 20.8243 17.5123 20.4137 17.911C20.0031 18.3097 19.4228 18.5091 18.6729 18.5091C17.9391 18.5091 17.3714 18.3097 16.9696 17.911C16.5679 17.5123 16.3671 16.9314 16.3671 16.1685V10.8321C16.3671 10.086 16.2537 9.54856 16.027 9.21982C15.8002 8.89108 15.4244 8.72627 14.8995 8.72538C14.254 8.72538 13.7608 8.9509 13.4198 9.40191C13.0788 9.85293 12.9083 10.4945 12.9083 11.3265V16.1632C12.9083 16.9261 12.7074 17.5069 12.3057 17.9057C11.904 18.3044 11.3278 18.5038 10.577 18.5038C9.82535 18.5038 9.2491 18.3044 8.84828 17.9057C8.44746 17.5069 8.2466 16.9261 8.24571 16.1632V10.8321C8.24571 10.086 8.13189 9.54856 7.90425 9.21982C7.67661 8.89108 7.30123 8.72627 6.7781 8.72538C6.14875 8.72538 5.66535 8.95134 5.32389 9.40191C4.98243 9.85249 4.81371 10.4945 4.81371 11.3265V16.1632C4.81282 17.7236 4.02634 18.5038 2.45429 18.5038Z" fill="#3F3C39"/>
<path d="M29.5067 18.6735C28.0716 18.6735 26.8159 18.4024 25.7396 17.8601C24.6944 17.3432 23.8247 16.532 23.2385 15.5271C22.6411 14.514 22.3429 13.3169 22.3438 11.9357C22.3438 10.5367 22.642 9.33464 23.2385 8.32959C23.8283 7.3281 24.699 6.52002 25.7436 6.00458C26.8137 5.4632 28.0694 5.19206 29.5108 5.19116C30.9522 5.19027 32.2079 5.46141 33.2779 6.00458C34.3181 6.51744 35.1833 7.32427 35.7656 8.32423C36.354 9.33017 36.6482 10.5322 36.6482 11.9303C36.6482 13.3106 36.354 14.5077 35.7656 15.5217C35.1867 16.5276 34.3209 17.3396 33.2779 17.8548C32.207 18.4006 30.9499 18.6735 29.5067 18.6735ZM29.5067 15.2389C29.8376 15.2455 30.1657 15.1777 30.4666 15.0406C30.7676 14.9035 31.0336 14.7006 31.245 14.447C31.7016 13.9226 31.9294 13.0837 31.9285 11.9303C31.9285 10.7591 31.7007 9.91578 31.245 9.4003C31.0312 9.15069 30.7643 8.95166 30.4636 8.81768C30.1629 8.6837 29.8361 8.61813 29.5067 8.62574C29.1736 8.61614 28.8425 8.68069 28.5376 8.81468C28.2327 8.94868 27.9617 9.14874 27.7443 9.4003C27.2868 9.91488 27.0585 10.7582 27.0594 11.9303C27.0594 13.0846 27.2877 13.9235 27.7443 14.447C27.9593 14.7025 28.2295 14.9065 28.5346 15.0436C28.8398 15.1807 29.1721 15.2475 29.5067 15.2389Z" fill="#3F3C39"/>
<path d="M40.4203 18.5051C39.6734 18.5051 39.1047 18.3057 38.7144 17.9069C38.3241 17.5081 38.1289 16.9272 38.1289 16.1641V7.55529C38.1289 6.01237 38.8829 5.24046 40.391 5.23957C41.7616 5.23957 42.5081 5.90735 42.6305 7.2429C43.0619 6.58799 43.6636 6.06274 44.371 5.72346C45.1216 5.36179 45.9462 5.17974 46.7795 5.19172C48.3053 5.19172 49.4377 5.64281 50.1767 6.54499C50.9156 7.44717 51.2842 8.83413 51.2824 10.7058V16.1681C51.2824 16.9312 51.0828 17.5121 50.6836 17.9109C50.2844 18.3097 49.7118 18.5091 48.9658 18.5091C48.2188 18.5091 47.6462 18.3097 47.2479 17.9109C46.8487 17.5121 46.6491 16.9312 46.6491 16.1681V10.884C46.6491 10.1032 46.516 9.54843 46.2499 9.21964C45.9838 8.89084 45.589 8.726 45.0656 8.72512C44.371 8.72512 43.8157 8.94668 43.3996 9.38979C42.9836 9.83291 42.7751 10.4267 42.7742 11.1711V16.1655C42.7662 17.7252 41.9816 18.5051 40.4203 18.5051Z" fill="#3F3C39"/>
<path d="M64.6646 18.6723C63.7675 18.691 62.878 18.5025 62.0634 18.1212C61.353 17.7882 60.7445 17.2671 60.3023 16.6127C59.8769 15.9643 59.6558 15.2002 59.6685 14.4217C59.6685 13.4956 59.9102 12.7568 60.3936 12.2053C60.8769 11.6537 61.6536 11.2604 62.7236 11.0253C63.7927 10.7893 65.2164 10.6713 66.9947 10.6713H67.9791V10.3039C67.9791 9.67816 67.8194 9.2312 67.5001 8.96303C67.1808 8.69485 66.6326 8.56345 65.8555 8.56881C65.3819 8.57308 64.9098 8.62155 64.445 8.71362C63.8581 8.83304 63.2826 9.00398 62.7249 9.2245C62.156 9.43546 61.6814 9.42697 61.3012 9.19902C61.119 9.09396 60.9596 8.95259 60.8327 8.78345C60.7059 8.6143 60.6141 8.42087 60.5629 8.21482C60.4517 7.78411 60.4987 7.32712 60.6952 6.92893C60.8937 6.50164 61.2779 6.18251 61.8477 5.97155C62.5915 5.69769 63.358 5.49172 64.138 5.35609C64.7744 5.24967 65.4182 5.19452 66.0632 5.19116C68.1855 5.19116 69.7605 5.65466 70.7881 6.58164C71.8157 7.50863 72.3291 8.96705 72.3282 10.9569V16.256C72.3282 17.8302 71.6204 18.6173 70.2046 18.6173C68.8594 18.6173 68.1432 17.9178 68.0558 16.5188C67.8259 17.1686 67.3887 17.7221 66.8134 18.0917C66.2277 18.4787 65.5114 18.6723 64.6646 18.6723ZM65.7007 15.6285C66.3008 15.6435 66.8825 15.4175 67.3189 14.9996C67.5385 14.7874 67.7111 14.5302 67.8252 14.2451C67.9393 13.9601 67.9922 13.6537 67.9804 13.3463V12.8743H66.996C65.9772 12.8743 65.2309 12.9838 64.7573 13.2029C64.2836 13.4219 64.0463 13.7669 64.0454 14.238C64.0404 14.4258 64.0761 14.6125 64.1499 14.7849C64.2237 14.9572 64.334 15.1111 64.4728 15.2356C64.7524 15.4975 65.1617 15.6285 65.7007 15.6285Z" fill="#3F3C39"/>
<path d="M76.7695 18.5038C76.0178 18.5038 75.446 18.3044 75.0541 17.9057C74.6621 17.5069 74.4657 16.9261 74.4648 16.1632V7.55573C74.4648 6.01306 75.2237 5.24127 76.7414 5.24039C78.1207 5.24039 78.8715 5.8992 78.9938 7.21681C79.38 6.59156 79.9274 6.07996 80.5794 5.73482C81.303 5.3597 82.1107 5.17311 82.9269 5.19254C83.7213 5.17255 84.5059 5.37079 85.194 5.76539C85.8306 6.1473 86.3149 6.73654 86.647 7.53314C87.0683 6.80433 87.6854 6.20611 88.4294 5.80527C89.1934 5.39481 90.0502 5.18439 90.9189 5.19387C92.4196 5.19387 93.5329 5.64046 94.2587 6.53363C94.9845 7.42681 95.347 8.81796 95.3461 10.7071V16.1685C95.3461 16.9314 95.1407 17.5123 94.7301 17.911C94.3194 18.3097 93.7391 18.5091 92.9892 18.5091C92.2553 18.5091 91.688 18.3097 91.2871 17.911C90.8863 17.5123 90.685 16.9314 90.6832 16.1685V10.832C90.6832 10.086 90.5698 9.54854 90.343 9.21981C90.1163 8.89107 89.7409 8.72625 89.2168 8.72537C88.5696 8.72537 88.0759 8.95088 87.7357 9.4019C87.3956 9.85292 87.2255 10.4944 87.2255 11.3265V16.1632C87.2255 16.9261 87.0246 17.5069 86.6229 17.9057C86.2212 18.3044 85.6449 18.5038 84.8941 18.5038C84.1424 18.5038 83.5656 18.3044 83.1639 17.9057C82.7622 17.5069 82.5613 16.9261 82.5613 16.1632V10.832C82.5613 10.086 82.4479 9.54854 82.2211 9.21981C81.9944 8.89107 81.6203 8.72625 81.0989 8.72537C80.4695 8.72537 79.9848 8.95088 79.6446 9.4019C79.3045 9.85292 79.134 10.4944 79.1331 11.3265V16.1632C79.1295 17.7236 78.3417 18.5038 76.7695 18.5038Z" fill="#3F3C39"/>
<path d="M103.91 18.6735C102.487 18.6735 101.245 18.4024 100.186 17.8601C99.1525 17.3429 98.2927 16.5317 97.7127 15.5271C97.1239 14.514 96.829 13.3169 96.8281 11.9357C96.8281 10.5367 97.123 9.33464 97.7127 8.32959C98.2959 7.32859 99.1562 6.52062 100.188 6.00458C101.247 5.4632 102.489 5.19206 103.913 5.19116C105.337 5.19027 106.579 5.46141 107.637 6.00458C108.665 6.51777 109.521 7.32452 110.097 8.32423C110.678 9.33017 110.968 10.5322 110.968 11.9303C110.968 13.3106 110.678 14.5077 110.097 15.5217C109.524 16.5274 108.668 17.3393 107.637 17.8548C106.575 18.4006 105.333 18.6735 103.91 18.6735ZM103.91 15.2389C104.237 15.2455 104.561 15.1777 104.859 15.0406C105.156 14.9034 105.419 14.7005 105.627 14.447C106.079 13.9226 106.304 13.0837 106.304 11.9303C106.304 10.7591 106.079 9.91578 105.627 9.4003C105.416 9.15072 105.153 8.9517 104.856 8.81771C104.558 8.68372 104.236 8.61815 103.91 8.62574C103.581 8.61613 103.253 8.68066 102.951 8.81465C102.65 8.94864 102.381 9.14871 102.166 9.4003C101.715 9.91488 101.489 10.7582 101.489 11.9303C101.489 13.0846 101.715 13.9235 102.166 14.447C102.379 14.7026 102.646 14.9065 102.948 15.0436C103.25 15.1807 103.579 15.2475 103.91 15.2389Z" fill="#3F3C39"/>
<path d="M117.303 18.6735C115.64 18.6735 114.415 18.2128 113.627 17.2914C112.839 16.3699 112.445 14.9613 112.445 13.0655V7.53557C112.445 5.97353 113.216 5.19206 114.757 5.19116C115.502 5.19116 116.073 5.39438 116.471 5.79678C116.87 6.19918 117.069 6.78057 117.069 7.53557V13.1961C117.069 14.4611 117.606 15.0932 118.68 15.0923C118.969 15.1007 119.257 15.0436 119.523 14.9251C119.788 14.8066 120.024 14.6297 120.213 14.4073C120.612 13.9515 120.811 13.3459 120.811 12.5904V7.53557C120.811 5.97353 121.581 5.19206 123.123 5.19116C123.868 5.19116 124.439 5.39438 124.837 5.79678C125.235 6.19918 125.434 6.78057 125.434 7.53557V16.2511C125.434 17.831 124.69 18.621 123.201 18.621C121.866 18.621 121.114 17.989 120.944 16.7248C120.11 18.0248 118.896 18.6744 117.303 18.6735Z" fill="#3F3C39"/>
<path d="M129.957 18.5091C128.368 18.5091 127.574 17.7288 127.574 16.1683V7.56017C127.574 6.01737 128.333 5.24553 129.849 5.24464C130.565 5.24464 131.12 5.44536 131.513 5.8428C131.907 6.24024 132.102 6.81447 132.102 7.56017V7.63727C132.382 6.91183 132.886 6.29301 133.542 5.86938C134.246 5.4242 135.064 5.18936 135.899 5.1928C136.405 5.17508 136.784 5.30091 137.038 5.57031C137.291 5.8397 137.425 6.33816 137.439 7.0657C137.439 7.69044 137.309 8.18447 137.047 8.5478C136.786 8.91112 136.288 9.12779 135.554 9.1978L134.951 9.25097C134.026 9.33958 133.354 9.59524 132.936 10.0179C132.517 10.4406 132.308 11.0689 132.307 11.9028V16.1683C132.315 17.7288 131.531 18.5091 129.957 18.5091Z" fill="#3F3C39"/>
<path d="M45.1252 32.4919L45.0265 32.5768L45.6933 33.3625L44.9772 33.9824L44.3104 33.1968L41.9033 35.2802L41.2539 34.512L43.661 32.4286L43.3703 32.0863L44.0864 31.4664L44.3771 31.8101L44.5798 31.6335C45.4573 30.8748 46.1307 31.178 46.5014 31.6147C46.69 31.836 46.8093 32.109 46.8442 32.399L46.2081 32.9488C46.1763 32.7842 46.1074 32.6293 46.0067 32.496C45.712 32.1402 45.4346 32.2238 45.1252 32.4919Z" fill="#3F3C39"/>
<path d="M47.8303 35.5988L47.1027 36.1388C47.0595 35.9982 46.9833 35.8704 46.8807 35.7663C46.4883 35.3772 45.8806 35.5752 45.2593 36.2233L43.9582 37.5817L43.2266 36.8575L46.1613 33.8L46.8507 34.4827L46.4747 34.959C46.9134 34.8206 47.3058 34.8053 47.6041 35.0975C47.7414 35.2279 47.8226 35.408 47.8303 35.5988Z" fill="#3F3C39"/>
<path d="M49.6126 36.8357C50.2306 37.2995 50.4099 37.9746 50.2591 38.5142L50.8432 37.8617L51.6133 38.4371L49.0638 41.6918L48.295 41.115L48.7935 40.3854C48.295 40.6751 47.5819 40.6818 46.9639 40.218C46.0131 39.503 45.9547 38.2577 46.6841 37.3248C47.4135 36.3918 48.6604 36.122 49.6126 36.8357ZM47.7313 39.6106C47.924 39.7531 48.1556 39.8365 48.3967 39.8503C48.6378 39.8642 48.8777 39.8078 49.0861 39.6883C49.2945 39.5689 49.4621 39.3917 49.5677 39.1792C49.6733 38.9666 49.7122 38.7282 49.6794 38.4941C49.6467 38.2599 49.5438 38.0405 49.3837 37.8636C49.2236 37.6866 49.0135 37.56 48.78 37.4997C48.5464 37.4395 48.2999 37.4482 48.0714 37.525C47.8429 37.6017 47.6428 37.7429 47.4963 37.9308C47.3956 38.0548 47.3216 38.1976 47.2788 38.3503C47.236 38.5031 47.2252 38.6628 47.2472 38.8198C47.2691 38.9768 47.3234 39.1278 47.4066 39.2637C47.4898 39.3996 47.6002 39.5176 47.7313 39.6106Z" fill="#3F3C39"/>
<path d="M54.9277 42.1694L53.7946 44.3232L52.929 43.844L53.847 42.0941C54.2942 41.242 54.1421 40.7857 53.6634 40.5218C53.0588 40.1867 52.4529 40.4586 52.1211 41.0387L51.1624 42.8681L50.2969 42.3889L52.2143 38.7329L53.03 39.1838L52.7887 39.7492C53.058 39.6551 53.343 39.6173 53.6269 39.6381C53.9107 39.6589 54.1875 39.7379 54.4411 39.8703C55.2988 40.3522 55.4497 41.172 54.9277 42.1694Z" fill="#3F3C39"/>
<path d="M58.1561 42.436C58.003 42.364 57.8362 42.324 57.6665 42.3186C57.4967 42.3132 57.3277 42.3426 57.1701 42.4049C57.0126 42.4672 56.8699 42.561 56.7513 42.6804C56.6327 42.7997 56.5406 42.942 56.4811 43.0982C56.4215 43.2544 56.3956 43.4211 56.4052 43.5876C56.4148 43.7541 56.4596 43.9169 56.5367 44.0655C56.6138 44.2141 56.7215 44.3453 56.8531 44.4508C56.9846 44.5563 57.1371 44.6338 57.3008 44.6782C57.4872 44.7472 57.6858 44.7788 57.8848 44.771C58.0838 44.7632 58.2792 44.7162 58.4594 44.6328L58.1167 45.5329C57.6925 45.6824 57.227 45.6724 56.8099 45.5049C56.2689 45.3064 55.8304 44.9049 55.5908 44.3889C55.3512 43.8728 55.3301 43.2845 55.5323 42.7532C55.7344 42.2219 56.1432 41.7913 56.6687 41.556C57.1942 41.3207 57.7933 41.3 58.3343 41.4986C58.7609 41.6406 59.1191 41.932 59.3406 42.3172L59.0006 43.2093C58.92 43.0313 58.8036 42.8711 58.6585 42.7382C58.5134 42.6054 58.3426 42.5026 58.1561 42.436Z" fill="#3F3C39"/>
<path d="M59.9577 46.4602L59.0117 46.1893L60.0571 42.1557L61.0031 42.4266L59.9577 46.4602ZM60.3275 41.0897C60.3535 40.9904 60.4073 40.9013 60.4821 40.8337C60.5569 40.766 60.6494 40.7229 60.7478 40.7098C60.8462 40.6967 60.9462 40.7141 61.0351 40.7599C61.124 40.8057 61.1978 40.8778 61.2471 40.967C61.2965 41.0563 61.3192 41.1587 61.3124 41.2613C61.3056 41.364 61.2696 41.4622 61.2089 41.5437C61.1482 41.6251 61.0656 41.686 60.9715 41.7188C60.8775 41.7515 60.7761 41.7546 60.6803 41.7276C60.6165 41.7102 60.5566 41.6798 60.5042 41.6382C60.4518 41.5966 60.4079 41.5446 60.3751 41.4852C60.3423 41.4258 60.3212 41.3603 60.313 41.2924C60.3048 41.2245 60.3098 41.1556 60.3275 41.0897Z" fill="#3F3C39"/>
<path d="M63.6111 42.868C64.3606 42.9879 64.836 43.5037 64.9644 44.0559L65.1538 43.1966L66.0807 43.3461L65.453 47.447L64.5261 47.2975L64.6056 46.414C64.3169 46.907 63.7078 47.2504 62.9597 47.1319C61.8037 46.9473 61.1615 45.8646 61.3429 44.6888C61.5243 43.5131 62.4552 42.6876 63.6111 42.868ZM63.3225 46.2349C63.5554 46.27 63.7933 46.234 64.0062 46.1317C64.2191 46.0293 64.3974 45.8651 64.5186 45.6598C64.6398 45.4544 64.6985 45.2172 64.6872 44.978C64.676 44.7388 64.5953 44.5083 64.4554 44.3157C64.3155 44.123 64.1226 43.9769 63.9011 43.8957C63.6795 43.8144 63.4393 43.8018 63.2107 43.8593C62.9822 43.9168 62.7754 44.0419 62.6167 44.2188C62.4579 44.3956 62.3543 44.6164 62.3188 44.8531C62.2918 45.0114 62.2965 45.1735 62.3329 45.3298C62.3692 45.486 62.4363 45.6332 62.5301 45.7624C62.6239 45.8915 62.7425 46 62.8787 46.0812C63.0149 46.1624 63.1659 46.2147 63.3225 46.2349Z" fill="#3F3C39"/>
<path d="M70.6683 44.8162L70.6829 45.7498L67.4105 45.8027L67.3945 44.8677L70.6683 44.8162Z" fill="#3F3C39"/>
<path d="M78.3975 43.6803L78.906 46.1896L77.9303 46.385L77.4882 44.2073C77.3701 43.6249 77.0449 43.2828 76.5776 43.3726C75.9975 43.4888 75.7811 44.1743 75.9139 44.9997L76.263 46.7165L75.2873 46.912L74.8466 44.7355C74.7271 44.1518 74.4019 43.8111 73.9333 43.8996C73.3559 44.0158 73.1302 44.7012 73.2696 45.5279L73.6187 47.2448L72.6457 47.4468L71.8359 43.4545L72.7559 43.2709L72.9178 43.8203C73.1913 43.3805 73.5882 43.0213 74.1284 42.913C74.3793 42.8505 74.6436 42.8697 74.8826 42.9679C75.1216 43.0661 75.3226 43.2381 75.4559 43.4585C75.7387 42.9421 76.1621 42.5036 76.7714 42.3808C77.629 42.2091 78.2117 42.7664 78.3975 43.6803Z" fill="#3F3C39"/>
<path d="M83.2384 42.4917L80.424 43.6798C80.6305 44.1445 81.1357 44.4114 81.789 44.1363C81.9756 44.0646 82.1403 43.9417 82.2655 43.7805C82.3908 43.6193 82.472 43.4259 82.5007 43.2205L83.328 42.9767C83.4228 43.5511 83.1319 44.5387 82.1046 44.9722C80.9617 45.4572 79.8396 44.8801 79.4006 43.7529C78.9811 42.6691 79.3604 41.4498 80.4838 40.9784C81.6072 40.5069 82.7072 41.1423 83.1384 42.2519L83.2384 42.4917ZM80.5643 40.1127L79.8591 40.4107L79.9695 38.9598L80.8942 38.5682L80.5643 40.1127ZM80.1747 43.0295L82.0812 42.2166C81.8851 41.8007 81.3747 41.5636 80.8097 41.8021C80.2448 42.0405 80.0266 42.5756 80.1773 43.0241L80.1747 43.0295Z" fill="#3F3C39"/>
<path d="M84.9553 41.1883L82.5234 40.2248L83.5802 39.5928L85.1415 40.2695L85.3331 38.5414L86.3898 37.9108L86.0107 40.5523L88.4425 41.5158L87.3858 42.1478L85.8244 41.4712L85.6342 43.1979L84.5775 43.8299L84.9553 41.1883Z" fill="#3F3C39"/>
<path d="M86.0792 36.744C86.0175 36.6634 85.982 36.5671 85.9771 36.4671C85.9723 36.3672 85.9983 36.268 86.052 36.1823C86.1056 36.0966 86.1845 36.0281 86.2785 35.9856C86.3726 35.943 86.4776 35.9282 86.5804 35.9432C86.6831 35.9581 86.779 36.002 86.8558 36.0694C86.9326 36.1368 86.987 36.2246 87.012 36.3218C87.037 36.4189 87.0315 36.521 86.9963 36.6152C86.961 36.7093 86.8976 36.7913 86.814 36.8507C86.7585 36.8902 86.6954 36.9187 86.6284 36.9347C86.5615 36.9507 86.4919 36.9538 86.4236 36.9439C86.3554 36.934 86.2899 36.9113 86.2308 36.8769C86.1717 36.8426 86.1202 36.7975 86.0792 36.744ZM90.087 40.2836L89.266 40.8701L86.7606 37.6006L87.5816 37.0141L90.087 40.2836Z" fill="#3F3C39"/>
<path d="M90.4362 35.7181C90.297 35.8173 90.1804 35.9443 90.0938 36.0909C90.0073 36.2375 89.9527 36.4004 89.9337 36.5692C89.9147 36.7379 89.9316 36.9088 89.9833 37.0707C90.0351 37.2326 90.1206 37.3819 90.2343 37.5091C90.3479 37.6362 90.4872 37.7383 90.6432 37.8089C90.7992 37.8794 90.9684 37.9168 91.1399 37.9186C91.3114 37.9203 91.4814 37.8865 91.6388 37.8192C91.7963 37.7519 91.9377 37.6527 92.0541 37.528C92.2036 37.3974 92.3254 37.2386 92.4122 37.0608C92.499 36.8831 92.5492 36.69 92.5597 36.4928L93.2085 37.2189C93.1436 37.6631 92.9143 38.0677 92.5652 38.3539C92.1314 38.7341 91.5629 38.928 90.9847 38.8931C90.4065 38.8581 89.866 38.5972 89.4821 38.1677C89.0982 37.7381 88.9024 37.1752 88.9377 36.6027C88.9729 36.0301 89.2364 35.4949 89.6702 35.1148C89.9997 34.8086 90.4315 34.6332 90.8833 34.6222L91.5279 35.3429C91.3299 35.3296 91.1311 35.3559 90.9435 35.4204C90.7559 35.4849 90.5834 35.5861 90.4362 35.7181Z" fill="#3F3C39"/>
<path d="M92.6266 35.413C91.7511 34.635 91.6232 33.2964 92.4479 32.3063C93.2725 31.3162 94.5578 31.2514 95.4333 32.0281C96.3088 32.8047 96.4419 34.1379 95.6238 35.1253C94.8057 36.1127 93.5035 36.1897 92.6266 35.413ZM94.7965 32.7926C94.6201 32.6356 94.4027 32.5363 94.1717 32.5074C93.9408 32.4785 93.7067 32.5213 93.4993 32.6303C93.2918 32.7393 93.1203 32.9097 93.0066 33.1197C92.8928 33.3298 92.8418 33.5701 92.8602 33.8102C92.8785 34.0502 92.9654 34.2793 93.1096 34.4682C93.2539 34.6571 93.4491 34.7974 93.6705 34.8713C93.892 34.9452 94.1296 34.9493 94.3533 34.8832C94.577 34.8171 94.7767 34.6837 94.927 34.4999C95.029 34.38 95.1067 34.2401 95.1554 34.0886C95.2042 33.937 95.223 33.7769 95.2109 33.6176C95.1987 33.4584 95.1557 33.3033 95.0846 33.1616C95.0134 33.0199 94.9155 32.8944 94.7965 32.7926Z" fill="#3F3C39"/>
</g>
<defs>
<clipPath id="clip0_844_40644">
<rect width="137.287" height="52.0956" fill="white" transform="translate(0.148438 0.191162)"/>
</clipPath>
</defs>
</svg>
