<svg width="138" height="53" viewBox="0 0 138 53" fill="none" xmlns="http://www.w3.org/2000/svg">
<path fill-rule="evenodd" clip-rule="evenodd" d="M56.4766 44.0448L56.5105 48.7087C56.5105 48.7087 73.2157 56.3697 85.2691 42.1318C85.2691 42.1318 71.3251 54.1767 56.4766 44.0448Z" fill="#F17829"/>
<path fill-rule="evenodd" clip-rule="evenodd" d="M44.8136 15.7114L41.3468 19.7881C41.3468 19.7881 39.3794 18.2116 35.752 17.9338C32.1247 17.6583 30.795 18.9773 30.4467 20.0953C30.0984 21.2133 31.2744 22.8755 35.2613 22.6723C39.2482 22.469 45.838 24.3391 45.5915 29.8274C45.5915 29.8274 45.5983 34.2157 42.3577 36.7114C39.1193 39.2048 29.1667 39.2907 23.5742 34.437L26.5797 29.9538C26.5797 29.9538 32.8868 34.7194 38.2193 32.4202C38.2193 32.4202 39.4766 31.5822 39.5806 30.6337C39.6847 29.6851 39.4721 28.2486 35.9262 28.0702C32.3802 27.8918 24.1758 27.1103 24.3567 19.9259C24.5398 12.746 37.2355 10.1554 44.8136 15.7114Z" fill="#098F3A"/>
<path fill-rule="evenodd" clip-rule="evenodd" d="M48.3092 13.2021L48.3047 43.0443C48.3047 43.0443 51.6855 46.4863 54.6729 47.6991L54.8289 35.3471C54.8289 35.3471 57.3934 38.6378 63.9199 38.5678C70.4486 38.4978 75.6341 33.3845 75.8308 25.5699C76.0276 17.7553 70.2225 12.7775 64.0216 12.8249C64.0216 12.8249 57.5449 12.1564 54.7317 16.4612L54.5259 13.1004L48.3092 13.2021ZM62.2758 18.6407C66.1248 18.6407 69.2523 21.762 69.2523 25.6083C69.2523 29.4523 66.127 32.5759 62.2758 32.5759C58.4268 32.5759 55.2993 29.4546 55.2993 25.6083C55.2993 21.7642 58.4246 18.6407 62.2758 18.6407Z" fill="#098F3A"/>
<path d="M82.3522 9.97562C84.4086 9.97562 86.0756 8.31074 86.0756 6.25703C86.0756 4.20332 84.4086 2.53845 82.3522 2.53845C80.2959 2.53845 78.6289 4.20332 78.6289 6.25703C78.6289 8.31074 80.2959 9.97562 82.3522 9.97562Z" fill="#F17829"/>
<path fill-rule="evenodd" clip-rule="evenodd" d="M95.102 12.7188L95.4027 16.1654C95.4027 16.1654 98.2024 12.6917 103.845 12.633C109.489 12.5743 114.188 17.2427 114.433 23.6118L114.573 38.3646L108.191 38.5566L108.067 23.7112C108.067 23.7112 107.339 17.9293 101.739 18.4533C101.739 18.4533 96.832 18.4284 95.8754 23.7947L95.8075 38.394L89.3398 38.6402L89.4868 12.6307L95.102 12.7188Z" fill="#098F3A"/>
<path fill-rule="evenodd" clip-rule="evenodd" d="M76.6088 4.92231C76.6088 4.92231 77.5043 2.05622 79.015 1.59321C79.015 1.59321 59.5802 -5.34053 49.25 9.72173C49.25 9.72173 61.0027 -2.24632 76.6088 4.92231Z" fill="#F17829"/>
<path d="M85.6435 12.6285H79.0469V38.4821H85.6435V12.6285Z" fill="#098F3A"/>
</svg>
